<?xml version="1.0" encoding="UTF-8" standalone="no"?>
<!-- Created with Inkscape (http://www.inkscape.org/) -->

<svg
   xmlns:dc="http://purl.org/dc/elements/1.1/"
   xmlns:cc="http://creativecommons.org/ns#"
   xmlns:rdf="http://www.w3.org/1999/02/22-rdf-syntax-ns#"
   xmlns:svg="http://www.w3.org/2000/svg"
   xmlns="http://www.w3.org/2000/svg"
   xmlns:sodipodi="http://sodipodi.sourceforge.net/DTD/sodipodi-0.dtd"
   xmlns:inkscape="http://www.inkscape.org/namespaces/inkscape"
   width="214.7887mm"
   height="222.06848mm"
   viewBox="0 0 214.7887 222.06848"
   version="1.1"
   id="svg8"
   inkscape:version="0.92.3 (2405546, 2018-03-11)"
   sodipodi:docname="roci.svg"
   inkscape:export-filename="C:\Users\Mark\Desktop\roci.png"
   inkscape:export-xdpi="200"
   inkscape:export-ydpi="200">
  <defs
     id="defs2" />
  <sodipodi:namedview
     id="base"
     pagecolor="#ffffff"
     bordercolor="#666666"
     borderopacity="1.0"
     inkscape:pageopacity="0.0"
     inkscape:pageshadow="2"
     inkscape:zoom="0.7"
     inkscape:cx="223.41048"
     inkscape:cy="557.36887"
     inkscape:document-units="mm"
     inkscape:current-layer="layer1"
     showgrid="false"
     inkscape:window-width="1920"
     inkscape:window-height="1027"
     inkscape:window-x="-8"
     inkscape:window-y="-8"
     inkscape:window-maximized="1"
     objecttolerance="1"
     gridtolerance="1"
     showguides="true"
     inkscape:guide-bbox="true"
     fit-margin-top="0"
     fit-margin-left="0"
     fit-margin-right="0"
     fit-margin-bottom="0" />
  <metadata
     id="metadata5">
    <rdf:RDF>
      <cc:Work
         rdf:about="">
        <dc:format>image/svg+xml</dc:format>
        <dc:type
           rdf:resource="http://purl.org/dc/dcmitype/StillImage" />
        <dc:title></dc:title>
      </cc:Work>
    </rdf:RDF>
  </metadata>
  <g
     inkscape:label="Layer 1"
     inkscape:groupmode="layer"
     id="layer1"
     style="display:inline"
     transform="translate(-17.510088,-82.090813)">
    <rect
       style="opacity:1;fill:#000000;fill-opacity:1;stroke:none;stroke-width:1.84023714;stroke-linecap:round;stroke-linejoin:round;stroke-miterlimit:4;stroke-dasharray:none;stroke-dashoffset:0;stroke-opacity:1"
       id="rect1112"
       width="214.7887"
       height="222.06848"
       x="17.510088"
       y="82.090813"
       rx="1.9994006"
       ry="0.047233149" />
  </g>
  <g
     inkscape:groupmode="layer"
     id="layer2"
     inkscape:label="Layer 2"
     style="display:inline"
     transform="translate(-17.510088,-82.090813)">
    <path
       style="opacity:1;fill:#ffffff;fill-opacity:1;stroke:none;stroke-width:0.257;stroke-linecap:round;stroke-linejoin:round;stroke-miterlimit:4;stroke-dasharray:none;stroke-dashoffset:0;stroke-opacity:1"
       d="m 103.56694,256.57548 c 3.03701,3.43738 13.50597,-13.65623 12.49485,-18.37478 3.5585,0.98651 7.47936,0.83295 9.07138,-2.57525 1.3364,-2.86098 -0.94611,-5.84676 0.55032,-7.71463 4.48787,-4.45922 25.48017,4.36906 20.88044,-13.93142 5.4753,-0.91278 15.15895,2.80324 17.37251,-1.23613 1.25812,0.27585 2.85991,0.21481 3.67258,-0.31116 1.57705,3.36768 13.31026,12.48646 16.94059,9.73242 4.54358,-4.27632 6.84779,-19.23391 4.9769,-25.64838 -1.11492,-3.01268 -3.76748,-4.50051 -4.83656,-6.90593 -0.52591,-1.1833 -3.73847,-5.33513 -6.96315,-11.45696 -3.33048,-6.32269 -6.00613,-13.18441 -6.00613,-13.18441 5.64344,-4.68003 2.77552,-13.19944 -3.20724,-11.09169 1.19124,-8.67618 -1.33662,-11.3432 -5.47902,-13.22984 1.43729,-10.57801 -9.45298,-14.35646 -15.31659,-12.27092 -4.49476,1.59868 -5.83396,8.71238 -0.58595,9.59823 -3.87107,-0.58777 -7.72899,-1.20183 -12.2944,-0.40091 -0.74324,-0.55391 -2.14661,-1.90556 -2.16734,-3.00413 -0.1611,-8.53827 -0.49563,-12.89414 -2.3807,-15.3367 -2.38381,-3.08879 -6.76676,-3.23803 -11.08722,-6.24796 -0.33774,-7.88604 -6.34974,-9.78815 -11.75986,-9.88897 -5.60365,-5.501032 -11.731357,-7.910079 -19.109772,-2.93997 -4.761428,-0.384272 -8.931908,0.13526 -10.69078,4.34313 -4.552136,-0.53851 -11.585856,-0.1051 -14.165286,6.21402 -10.31195,1.52694 -31.260531,21.2709 -22.18337,34.87867 l 15.367997,15.23436 c -3.428175,2.51255 -5.689996,6.0742 -1.548264,14.10182 -4.045148,1.50759 -2.226365,9.47467 2.557828,12.02329 3.958545,2.10879 10.124768,1.80646 11.975937,-3.16425 l 5.857002,3.09792 c -5.914036,5.16254 0.244416,15.82187 7.379648,17.06872 6.339916,1.10787 13.873015,-4.49084 14.803722,-13.59422 0,0 2.405428,2.53906 3.073598,3.47451 0.66817,0.93544 3.0736,10.15624 3.0736,10.15624 -8.059727,8.95556 -11.451782,19.72104 -2.13815,35.41321 0,0 -1.06908,15.56845 1.87088,17.17207 z"
       id="path1110"
       inkscape:connector-curvature="0"
       sodipodi:nodetypes="ccscccccccscccsccssccccccccsccsccccc" />
    <path
       style="opacity:1;fill:#000000;fill-opacity:1;stroke:none;stroke-width:0.15000001;stroke-linecap:round;stroke-linejoin:round;stroke-miterlimit:4;stroke-dasharray:none;stroke-dashoffset:0;stroke-opacity:1"
       d="m 95.968946,100.31759 c -2.815625,-0.0105 -5.382022,1.14857 -6.8678,3.37188 -5.004583,-2.61918 -9.458262,0.67099 -10.110494,4.58267 0,0 -4.572405,-2.21266 -9.213389,0.0946 -4.640988,2.30723 -5.172578,4.51186 -2.504242,14.45752 0.188989,1.03943 -1.322694,4.15774 -1.70067,5.95313 -0.508183,2.82789 2.062673,3.21943 -2.278931,8.96276 -1.578305,1.58427 -0.979064,2.52989 0.945161,2.26808 -0.127437,8.72404 6.187638,6.24202 6.325714,9.81386 0.01599,2.73248 -4.273116,2.68115 -4.319117,8.23723 -0.046,5.55609 6.036323,5.3976 6.036323,5.3976 2.542532,-0.21242 2.799914,-2.91632 0,-3.0241 -1.480447,-0.0401 -2.329063,-0.5313 -2.401403,-1.85157 0,0 0.754801,-0.57418 1.184423,-1.66243 3.2458,-0.35037 5.72915,-3.60752 5.360398,-8.10028 2.980393,0.8026 5.173207,2.50335 7.179405,3.7207 2.869697,1.7413 5.199036,2.83487 5.308203,0.90124 -3.223419,-1.50923 -6.054939,-3.63299 -8.788093,-5.9061 -1.889882,-1.6064 -6.236462,-4.01593 -7.748365,-5.52783 -1.395889,-1.40629 -2.855958,-6.42219 -0.656807,-9.98492 1.319506,-1.93557 3.113505,-2.77192 3.113505,-2.77192 0,0 2.645688,0.37842 4.441074,-0.0941 1.795386,-0.47247 2.457214,-2.83497 2.457214,-2.83497 1.165426,-0.50453 2.330485,-1.05837 3.495911,-2.55127 l 0.973582,0.16692 c 0,0 2.505964,4.65851 6.207889,4.65191 4.637715,-0.008 4.59159,-5.25155 7.032646,-5.30769 2.441057,-0.0561 3.173767,2.60082 5.629637,2.65617 1.51152,0.0341 2.55126,-0.93896 2.55126,-0.93896 l 2.07894,1.03921 c -0.15091,3.32188 3.06899,6.81884 5.47512,7.85379 3.25292,6.81332 7.40114,14.31218 11.91193,21.62865 1.40233,0.91476 2.21958,0.65963 2.36213,-0.94516 l -0.66145,-1.03921 c 3.21954,-0.35123 6.23909,-0.73085 9.44955,-0.0946 1.51191,0 6.04769,-1.70119 6.04769,-1.70119 0,0 4.63036,-1.22819 7.46518,-1.70067 2.36235,0.37798 6.99234,2.64583 6.99234,2.64583 l 11.52849,19.27686 c 0.56315,0.80553 1.10835,0.36179 0.85008,-0.37827 l -2.913,-8.32094 c 4.5323,-0.1379 4.32331,-6.92518 2.27945,-6.66988 -1.54439,0.24788 0.43383,2.33035 -1.83348,2.35645 -2.26732,0.0261 -2.7297,-3.14577 -2.91869,-4.09071 -0.94459,-6.12646 2.16985,-10.44519 -6.70915,-11.90624 5.93073,-9.53484 -9.22539,-16.3414 -12.47314,-9.16585 -0.4091,0.9114 0.8555,1.85526 1.67897,0.38809 0.22422,-0.64888 3.13091,-1.50138 2.93677,2.24534 -0.19413,3.74671 -2.63713,3.78073 -4.23799,5.2095 -3.02703,-2.39383 -11.17084,-1.89656 -13.26844,-0.4899 -1.08944,-1.53066 -1.60273,-2.55702 -3.07888,-3.38428 0,0 -0.74171,-2.10438 -0.96686,-3.57498 -0.11384,-0.74359 0.0351,-5.02119 -0.63976,-7.85895 0.56608,-5.00254 -1.66688,-7.12414 -6.14226,-7.84293 0,0 -5.1971,-3.40186 -5.85855,-3.40186 -1.08675,-1.9952 1.17722,-9.46486 -10.67791,-8.69353 -2.67789,-4.10445 -6.71003,-6.05121 -10.330114,-6.06474 z m -1.767335,5.9309 c 0.529823,0.012 1.061625,0.11206 1.581298,0.32194 -4.771112,2.34903 -4.776777,3.20132 -5.044654,4.20957 -0.534538,0.15033 -1.10249,0.86852 -0.668176,1.60351 0.126611,0.75278 1.292598,0.67689 2.559018,0.53176 1.465075,-0.16791 2.662894,-0.30078 3.036507,-0.014 -0.233133,0.426 -4.661086,0.50576 -5.117518,1.69551 -0.512784,1.33663 -1.588521,3.29028 2.194181,3.16569 0,0 -0.300497,0.33406 -0.634584,0.56793 -0.33409,0.23386 -0.23358,0.601 -0.23358,0.601 0,0 -0.634899,-0.20035 -1.837613,0.40101 -1.202714,0.60135 -1.135745,0.86868 -1.403014,0.86868 -0.267269,0 -0.584795,-0.0502 -0.551389,-0.45114 1.213588,-3.92246 -1.170376,-3.32142 -0.734838,-4.84415 0.435539,-1.52272 -0.719878,-1.50198 -0.701767,-2.37195 0.01811,-0.86996 1.26969,-2.23862 1.26969,-2.23862 0.615191,-1.61067 3.425391,-4.11145 6.286439,-4.04678 z m 16.281179,5.14955 c 0,0 2.62255,0.401 2.52232,2.97347 -0.10022,2.57247 -1.80454,3.10678 -1.80454,3.10678 0,0 0.21736,-1.48676 0.13384,-2.92333 -0.0835,-1.43657 -0.85162,-3.15692 -0.85162,-3.15692 z m -34.464049,0.20878 c 1.711335,0.0407 3.971668,1.10358 3.491259,4.69738 0.236236,0.87407 0.661681,0.80328 0.779798,1.08676 0.118118,0.28348 -0.165213,0.51942 -0.472323,0.44855 -0.307105,-0.0709 -0.566891,-0.49594 -1.559076,-0.80305 -0.99219,-0.3071 -1.606695,-0.0471 -1.701189,-0.30696 -0.0945,-0.25986 -0.02348,-0.18913 0.189135,-0.3545 1.864154,-0.41414 1.649976,-1.68429 1.012859,-2.41794 -1.832451,-2.11008 -3.476537,-0.94686 -3.517098,-1.64538 -0.07933,-0.38595 0.749835,-0.72927 1.776635,-0.70486 z m 38.427109,9.15448 c 3.15914,-0.0266 7.14064,2.27576 7.37216,5.74538 3.03453,1.72468 2.27422,2.93184 2.10272,4.12637 0.75968,0.21215 -0.17838,1.32292 -0.8015,2.20761 -0.3612,-1.67669 0.22896,-4.73027 -1.65365,-4.20491 -1.60546,-0.40253 -1.36674,0.86016 -1.70067,1.60611 -0.0681,-5.02466 -2.26018,-8.24173 -7.75457,-8.24033 -0.31908,-0.0215 -0.5627,-0.2402 0.0755,-0.64492 0.65514,-0.39817 1.47551,-0.58787 2.36006,-0.59531 z m 11.00398,14.50712 c 0.56795,0 0.63459,0.70177 0.63459,0.70177 0,0 -0.10042,3.54142 -0.0336,4.30981 0.0668,0.7684 0.66848,2.20488 0.53485,2.2717 -0.13364,0.0668 -0.70193,-0.96894 -1.30328,-1.63711 -0.60136,-0.66817 -0.93534,-0.76843 -0.93534,-0.76843 l 0.30075,-4.34289 c 0,0 0.23407,-0.53485 0.80202,-0.53485 z m 13.69736,8.18503 c -1.65934,1.45086 -2.93907,3.22729 -3.97547,5.21209 -1.04252,-3.43778 0.95465,-4.54693 3.97547,-5.21209 z"
       id="path827"
       inkscape:connector-curvature="0" />
    <path
       style="opacity:1;fill:#000000;fill-opacity:1;stroke:none;stroke-width:0.14999999;stroke-linecap:round;stroke-linejoin:round;stroke-miterlimit:4;stroke-dasharray:none;stroke-dashoffset:0;stroke-opacity:1"
       d="m 96.77901,131.49409 c 0.884216,-0.13068 1.175883,0.19624 0.803198,1.13392 -2.996671,1.54682 -2.850129,4.01023 -4.086868,6.47285 -0.900573,0.22165 -1.55613,-0.0958 -1.511905,-0.94495 0.451065,-1.65885 0.903346,-1.89645 1.514069,-3.88911 0.284897,-0.92957 1.644791,-1.20143 3.281506,-2.77271 z"
       id="path841"
       inkscape:connector-curvature="0"
       sodipodi:nodetypes="ccccsc" />
    <path
       style="opacity:1;fill:#000000;fill-opacity:1;stroke:none;stroke-width:0.14999999;stroke-linecap:round;stroke-linejoin:round;stroke-miterlimit:4;stroke-dasharray:none;stroke-dashoffset:0;stroke-opacity:1"
       d="m 94.298541,138.41577 c 1.257808,-0.20385 2.802089,0.36671 2.244229,2.12612 -1.042901,0.69663 -2.433263,-1.34021 -2.244229,-2.12612 z"
       id="path843"
       inkscape:connector-curvature="0"
       sodipodi:nodetypes="ccc" />
    <path
       style="opacity:1;fill:#000000;fill-opacity:1;stroke:none;stroke-width:0.14999999;stroke-linecap:round;stroke-linejoin:round;stroke-miterlimit:4;stroke-dasharray:none;stroke-dashoffset:0;stroke-opacity:1"
       d="m 99.306725,138.25041 c -0.04725,0.0945 -1.724517,1.15755 -1.724517,1.15755 -0.591411,0.655 -0.117266,1.5341 1.252048,0.96857 1.675234,-0.91131 3.772434,-1.8303 3.638024,-5.52791 -1.30394,-0.085 -2.486003,0.42726 -3.165555,3.40179 z"
       id="path845"
       inkscape:connector-curvature="0"
       sodipodi:nodetypes="ccccc" />
    <path
       style="opacity:1;fill:#000000;fill-opacity:1;stroke:none;stroke-width:0.14999999;stroke-linecap:round;stroke-linejoin:round;stroke-miterlimit:4;stroke-dasharray:none;stroke-dashoffset:0;stroke-opacity:1"
       d="m 77.775431,146.20987 c 0,0 -0.23386,-1.06908 0.267269,-1.21942 0.501131,-0.15034 4.460063,-1.06908 4.794149,-0.3675 0.334087,0.70159 0.217157,1.03567 -0.868627,0.95215 -1.085781,-0.0835 -3.992337,0.98556 -3.992337,0.98556 z"
       id="path847"
       inkscape:connector-curvature="0" />
    <path
       style="opacity:1;fill:#000000;fill-opacity:1;stroke:none;stroke-width:0.14999999;stroke-linecap:round;stroke-linejoin:round;stroke-miterlimit:4;stroke-dasharray:none;stroke-dashoffset:0;stroke-opacity:1"
       d="m 83.054006,150.70334 c 0.01669,-0.11693 -0.133636,-1.11919 0.133633,-1.45328 0.267269,-0.33409 0.868627,0.0501 1.018966,-0.23386 0.150339,-0.28398 -0.133636,-0.33409 0.384199,-0.41761 0.517834,-0.0835 0.718288,0.43431 1.069078,-0.0334 0.350793,-0.46772 2.104747,-1.9377 2.622582,-1.75396 0.517837,0.18375 0.53454,0.65147 0.167044,1.08579 -0.367495,0.43431 -2.53906,2.80633 -2.956668,2.82303 -0.41761,0.0167 -0.384202,-0.10023 -0.835218,-0.15034 -0.451017,-0.0501 -0.701583,0.25057 -0.985557,0.30068 -0.283972,0.0501 -0.618059,-0.16704 -0.618059,-0.16704 z"
       id="path849"
       inkscape:connector-curvature="0" />
    <path
       style="opacity:1;fill:#000000;fill-opacity:1;stroke:none;stroke-width:0.14999999;stroke-linecap:round;stroke-linejoin:round;stroke-miterlimit:4;stroke-dasharray:none;stroke-dashoffset:0;stroke-opacity:1"
       d="m 86.595325,144.30557 c 2.276112,-1.08893 5.730962,0.94673 6.447878,3.20724 -0.334086,0.8018 -0.73499,0.21715 -0.73499,0.21715 0.03939,-0.0945 -2.2557,-0.95067 -2.856444,-0.56795 -0.398844,-0.0488 -1.79255,-2.22414 -2.739511,-1.83747 -0.150339,-0.33409 -0.116933,-1.01897 -0.116933,-1.01897 z"
       id="path851"
       inkscape:connector-curvature="0"
       sodipodi:nodetypes="cccccc" />
    <path
       style="opacity:1;fill:#000000;fill-opacity:1;stroke:none;stroke-width:0.14999999;stroke-linecap:round;stroke-linejoin:round;stroke-miterlimit:4;stroke-dasharray:none;stroke-dashoffset:0;stroke-opacity:1"
       d="m 96.377409,152.04654 c -0.196336,0.73965 0.03344,1.04616 1.157552,0.87407 0.485195,-0.65388 2.14997,-0.73609 2.385976,-1.19299 -0.984573,-0.87671 -2.119029,-1.004 -3.543528,0.31892 z"
       id="path853"
       inkscape:connector-curvature="0"
       sodipodi:nodetypes="cccc" />
    <path
       style="opacity:1;fill:#000000;fill-opacity:1;stroke:none;stroke-width:0.14999999;stroke-linecap:round;stroke-linejoin:round;stroke-miterlimit:4;stroke-dasharray:none;stroke-dashoffset:0;stroke-opacity:1"
       d="m 97.393221,153.73562 c 0.503201,-0.97763 2.036426,-1.33182 3.720699,-1.59459 1.19888,-1.98765 2.84356,-4.2045 4.79558,-4.44122 2.17914,3.76001 -1.07863,7.58144 -3.34273,8.16193 -2.52073,0.85557 -5.544745,-1.56049 -5.173549,-2.12612 z"
       id="path855"
       inkscape:connector-curvature="0"
       sodipodi:nodetypes="ccccc" />
    <path
       style="opacity:1;fill:#000000;fill-opacity:1;stroke:none;stroke-width:0.14999999;stroke-linecap:round;stroke-linejoin:round;stroke-miterlimit:4;stroke-dasharray:none;stroke-dashoffset:0;stroke-opacity:1"
       d="m 104.88188,157.57444 c 2.95243,-0.0806 5.79855,-1.54441 6.93578,-4.5653 0.49546,-1.31612 -0.071,-2.3728 1.35607,-6.77398 l 1.25204,0.77957 c 0.12304,6.15279 -2.16208,8.49834 -4.79557,11.62278 -0.72511,0.39897 -3.00806,-0.0473 -4.51209,-0.0709 -0.82439,-0.0867 -1.11752,-0.97067 -0.23623,-0.99219 z"
       id="path857"
       inkscape:connector-curvature="0"
       sodipodi:nodetypes="csccccc" />
    <path
       style="opacity:1;fill:#000000;fill-opacity:1;stroke:none;stroke-width:0.14999999;stroke-linecap:round;stroke-linejoin:round;stroke-miterlimit:4;stroke-dasharray:none;stroke-dashoffset:0;stroke-opacity:1"
       d="m 115.72507,151.24334 c 1.4949,-0.9378 2.5756,-2.59104 3.37816,-4.7247 l 1.37016,0.14174 c -0.0383,2.40188 1.83309,3.84139 1.44104,5.57515 -0.8312,1.18578 -4.12624,0.23623 -6.18936,0.35435 -0.52684,-0.10497 -0.71889,-0.87659 0,-1.34654 z"
       id="path859"
       inkscape:connector-curvature="0"
       sodipodi:nodetypes="cccccc" />
    <path
       style="opacity:1;fill:#000000;fill-opacity:1;stroke:none;stroke-width:0.14999999;stroke-linecap:round;stroke-linejoin:round;stroke-miterlimit:4;stroke-dasharray:none;stroke-dashoffset:0;stroke-opacity:1"
       d="m 62.643035,113.75283 c -8.102611,2.69486 -18.866099,13.46869 -20.599702,23.29278 -0.482307,2.96448 1.434129,3.85775 2.173363,2.12612 1.356394,-10.4602 8.979934,-16.92981 17.859374,-22.48958 2.507485,-1.38064 1.849464,-3.44092 0.566965,-2.92932 z"
       id="path863"
       inkscape:connector-curvature="0"
       sodipodi:nodetypes="ccccc" />
    <path
       style="opacity:1;fill:#000000;fill-opacity:1;stroke:none;stroke-width:0.14999999;stroke-linecap:round;stroke-linejoin:round;stroke-miterlimit:4;stroke-dasharray:none;stroke-dashoffset:0;stroke-opacity:1"
       d="m 43.18302,142.2034 c -0.498916,0.0362 -0.659972,0.64665 -0.08578,1.11673 l 15.914791,15.54065 c 2.12366,4.887 -3.343357,3.28502 -2.818434,9.98337 0.61192,7.0859 6.522492,8.31394 6.469891,9.6299 -0.003,3.22075 -5.452441,2.10886 -5.334043,-0.34209 -0.0911,-0.94531 -1.080037,-0.83871 -1.194757,0.11007 -1.095108,7.12934 11.154737,11.9448 12.152746,0.0232 1.389025,1.66611 2.437381,3.52043 4.897374,3.63958 1.207534,1.90724 3.820946,2.25207 6.461622,1.77301 6.231451,2.68649 6.16158,10.21626 4.403865,11.78481 -2.041197,1.28507 -5.93699,-0.9932 -5.740217,-5.70456 -0.0811,-0.78835 -0.374859,-0.80439 -0.802018,-0.33434 -4.365295,7.27434 4.06523,13.76323 10.936282,10.82207 4.528859,-1.93858 7.186366,-8.48893 5.300453,-13.76195 1.514703,0.37828 2.678144,1.0338 4.838462,0.68782 6.531053,4.23338 6.524803,11.04009 8.591723,17.41961 l 0.16278,0.21135 c -2.01218,2.13109 -4.00651,4.2566 -4.84001,5.20123 -2.00452,2.27179 -4.410063,11.49224 -3.073716,17.1049 1.336346,5.61266 5.786726,10.30164 5.479246,14.29887 -0.26727,3.4745 -1.73725,9.08751 0.66818,9.88932 1.26777,0.42259 4.00907,-2.93989 6.01359,-6.94893 2.00452,-4.00905 1.60352,-10.15648 1.60352,-10.15648 0,0 1.01804,0.12455 2.43551,0.57309 1.44188,0.45626 3.29711,1.23404 4.91442,0.8971 1.43909,-0.29981 2.00453,-1.73736 2.00453,-1.73736 0,0 -0.13342,-5.07816 0.13384,-6.68176 0.26727,-1.60362 1.87071,-3.20746 5.87975,-3.47473 4.00904,-0.26727 12.56194,0.4009 15.50189,-2.6727 1.20273,-1.73725 -1.60403,-8.81962 -1.60403,-8.81962 4.90272,-2.57461 8.80427,-1.47003 14.0317,-0.80202 2.53906,0.26727 4.54381,10e-5 5.47925,-0.93534 0.93544,-0.93544 0.53434,-1.87069 0.53434,-1.87069 3.49783,2.0088 4.9687,1.69684 5.61257,-2.00453 0.26727,-0.66816 0.66818,-0.26716 0.66818,-0.26716 0,0 0.53464,2.00433 1.06919,3.87521 0.53454,1.87089 3.34119,4.1427 4.5439,5.34541 1.20272,1.20271 3.20684,1.73716 4.40955,1.60352 1.20271,-0.13364 -0.26716,-2.13837 -0.26716,-2.13837 -8.37759,-4.48384 -6.33546,-9.82193 -9.62164,-17.37207 l 0.40101,-0.80201 c 0,0 -1.4702,-2.2716 -2.13837,-3.20704 -0.66818,-0.93544 -1.87069,-3.60857 -1.87069,-3.60857 l -2.54609,-2.80913 c -5.3e-4,-0.005 -9e-5,-0.009 -5.3e-4,-0.0134 -0.87494,-3.64007 -1.80935,-6.37986 -3.68557,-9.40253 0.6176,-0.3088 -0.24978,-2.09557 -1.65364,-1.13378 -0.60634,0.41541 -2.78743,1.74836 -4.11035,2.26808 -6.2369,0.40938 -8.04218,5.23376 -9.63869,12.14241 -0.21557,0.7828 0.0216,1.1087 0.34365,1.1405 l -0.7586,2.35179 -5.21157,2.93988 -7.08278,-1.60352 -2.27169,-1.60352 3.74137,-10.15649 c 0,0 0.93566,-0.26717 1.4702,-0.26717 l 3.20704,-6.54792 -1.06867,-1.20302 -6.01359,4.41006 c 0,0 -0.26727,-1.33625 0,-2.93987 0.26727,-1.60362 1.73685,-3.20755 1.73685,-3.20755 l -0.26717,-1.20252 c 0,0 -2.40555,0.40082 -5.07824,2.2717 -2.6727,1.87089 -6.81509,4.54391 -6.81509,4.54391 0,0 -0.13343,1.33604 -1.20251,2.13785 -1.06908,0.80181 -1.60404,7.48378 -1.60404,7.48378 0,0 -1.20241,-2.40544 -1.46968,-3.34088 -0.26727,-0.93544 -1.60352,0.80151 -1.60352,2.13786 0,1.33634 0.93535,5.34541 0.93535,5.34541 l -1.60352,4.9444 c 0,0 -1.85525,1.94865 -3.63596,3.82405 l -0.17311,-0.28267 c -0.91317,-1.95998 -2.24413,-3.19625 -2.6448,-6.35206 0.0177,-6.39246 -1.36482,-6.34191 -2.92851,-8.15144 -1.4261,-1.65032 -3.0637,-2.84256 -4.582659,-3.73776 -5.525064,-3.63144 -11.217489,-8.34558 -17.30592,-11.55898 -8.705823,-3.68057 -14.305806,-8.52753 -19.443774,-13.69788 l -2.338358,-2.6727 c -6.103609,-3.56873 -10.955708,-9.80625 -16.036231,-13.6307 -0.253537,-0.20484 -0.485742,-0.29871 -0.678512,-0.31419 -0.03614,-0.003 -0.07113,-0.003 -0.104386,-5.3e-4 z"
       id="path1093"
       inkscape:connector-curvature="0" />
    <path
       id="path883"
       style="opacity:1;fill:#000000;fill-opacity:1;stroke:none;stroke-width:0.14999999;stroke-linecap:round;stroke-linejoin:round;stroke-miterlimit:4;stroke-dasharray:none;stroke-dashoffset:0;stroke-opacity:1"
       d="m 140.11605,193.13237 c 0,0 0.96885,-1.97111 2.03793,-1.57021 1.06908,0.40091 0.60135,2.07134 0.30068,2.43884 -0.30068,0.3675 -1.03567,1.40316 -1.93771,0.93544 -0.90203,-0.46772 -0.4009,-1.80407 -0.4009,-1.80407 z m -5.34539,-0.30067 c 0,0 1.06907,-1.06908 1.63702,-0.56795 0.56795,0.50113 0.50113,1.50339 0.0334,2.00452 -0.46772,0.50113 -1.33635,1.36975 -2.20497,1.03567 -0.86863,-0.33409 0.53454,-2.47224 0.53454,-2.47224 z m -4.74404,-0.20046 c -0.41097,-0.64573 1.5034,-3.37427 2.20498,-2.93996 0.53453,0.46772 0.60135,2.43884 -0.0668,2.90656 -0.66817,0.46772 -1.70698,0.71087 -2.13816,0.0334 z m 9.53457,-5.45654 c 0.24655,-1.61253 0.76442,-3.03126 1.88988,-4.01599 0.16608,-0.96216 0.80709,-0.82233 1.08668,0.37797 0,0 -0.56696,4.25223 -2.12612,7.03981 -1.47746,2.86926 -2.65168,5.38031 -2.69308,5.33891 -1.08076,1.28409 -2.93236,0.78269 -1.37016,-0.89769 1.21994,-2.24852 1.5929,-5.03778 3.2128,-7.84301 z m -8.3391,6.4256 c -0.65239,0.30844 -0.41541,1.64794 1.1103,0.89769 0,0 1.65365,-0.75595 2.12612,-1.41741 0.47247,-0.66146 2.17336,-6.89806 2.17336,-6.89806 -0.15595,-1.09996 -0.58519,-1.24338 -1.27567,-0.47247 -0.67057,0.48769 -1.7839,6.38717 -1.79538,6.56733 -0.28349,0.37798 -2.33873,1.32292 -2.33873,1.32292 z m 29.93099,-27.66313 c -0.46246,-0.5682 -0.5124,-1.56359 0.7087,-1.06306 9.35167,6.72245 8.29161,16.12135 16.53646,23.57626 l -5.33891,-9.82738 c -0.40515,-1.23454 0.93188,-1.26543 1.27567,-0.42522 1.26827,3.18036 6.96544,10.40133 9.07142,14.74107 0.95906,0.8032 3.46262,3.30729 3.35455,4.48847 0.18898,1.18117 0.18898,1.88988 0.18898,1.88988 0.16145,0.9253 -1.11392,1.31989 -1.60639,-0.28353 0,0 -0.37798,-1.55915 -0.8032,-1.84263 -0.42523,-0.28349 -7.46503,-7.37053 -10.53609,-10.20536 -4.81506,-6.1759 -7.5966,-16.1519 -12.85119,-21.0485 z m -21.23748,1.10302 c 0,0 1.00226,-1.36976 1.70384,-1.70385 0.70158,-0.33408 12.52826,-2.00452 12.96257,-2.00452 0.43431,0 1.30294,0.16705 1.60362,0.7684 0.30068,0.60136 -0.33409,1.10249 -1.10249,1.33635 -0.7684,0.23386 -13.16302,2.63929 -13.79779,2.87315 -0.63476,0.23386 -1.03567,0.33408 -1.36975,0.0668 -0.33409,-0.26727 0,-1.33634 0,-1.33634 z m -8.11832,2.17156 c -0.51621,-1.08728 0.41131,-1.80512 1.06908,-1.10249 1.79458,1.96874 1.36811,2.92003 4.2429,0.76841 0.91191,-0.15285 1.18567,0.63555 0.90204,1.00226 l -4.87767,3.80858 c -1.25933,0.71884 -2.0922,-0.54246 -1.33635,-1.13589 l 1.67044,-1.33635 z m -23.51971,0.50113 c -0.58997,-1.19839 0.62878,-1.3739 1.13589,-0.7684 1.84801,1.57433 3.05596,3.57536 4.10927,5.67948 0.53542,1.74311 -0.98351,2.84473 -2.20497,0.66817 -0.96224,-2.00044 -1.75344,-4.47124 -3.04019,-5.57925 z"
       inkscape:connector-curvature="0" />
    <path
       style="opacity:1;fill:#266186;fill-opacity:1;stroke:none;stroke-width:0.14999999;stroke-linecap:round;stroke-linejoin:round;stroke-miterlimit:4;stroke-dasharray:none;stroke-dashoffset:0;stroke-opacity:1"
       d="m 128.82379,176.32793 -7.34994,4.27623 c 0,0 -0.80161,5.47894 -1.87069,7.6171 -1.06908,2.13815 -3.20715,5.61249 -3.60805,8.55245 -0.4009,2.93997 -1.60373,3.87544 -3.07371,6.01359 -1.46998,2.13816 -6.08094,5.78572 -8.95346,9.88932 -2.80633,4.00904 -3.20714,6.68157 -2.93987,11.22515 0.26727,4.54358 3.07361,8.15167 4.67723,13.63069 1.60362,5.47903 0.40049,11.62617 0.40049,11.62617 0,0 4.00948,-1.87052 5.6131,-11.09132 0.65126,-3.74475 -1.06908,-15.36827 -0.66818,-18.1746 0.40091,-2.80634 3.0732,-11.49232 3.0732,-11.49232 l -2.13785,2.13786 c 0,0 -3.60847,7.08256 -3.87574,7.6171 -0.26727,0.53454 -1.33625,1.06918 -1.60352,0.40101 -0.26727,-0.66818 0.53487,-3.3409 3.87574,-9.35447 3.34087,-6.01356 6.41407,-7.34994 6.41407,-7.34994 l 10.42366,-18.30792 z m 5.07824,4.00906 -5.47925,3.34088 c 0,0 -4.81088,9.0869 -5.34541,11.49232 -0.53454,2.40543 -2.2716,8.82014 -3.20704,9.48831 -0.93545,0.66818 -0.80192,-9e-5 -1.06919,0.93534 -0.26727,0.93546 -2.6727,4.81108 -2.6727,4.81108 0,0 1e-4,2.40523 -0.26717,3.20704 -0.26727,0.80181 -1.87069,2.80603 -1.87069,2.80603 0,0 0.40091,3.20756 0,5.21208 -0.4009,2.00452 -1.06918,3.60805 -1.06918,3.60805 l 0.26717,7.2161 c 0,0 1.60393,0.40112 3.20755,0.80202 1.60362,0.4009 4.27623,0.26717 4.27623,0.26717 0,0 -0.26738,-2.40514 -0.40101,-4.14239 -0.13364,-1.73725 -2.27201,-4.81128 -2.80655,-5.61309 -0.53454,-0.80181 -0.26717,-2.80603 -0.26717,-2.80603 0,0 0.93556,-5.07815 1.06919,-6.01359 0.13363,-0.93544 0.13374,-1.8712 1.06918,-1.8712 0.93545,0 0.80151,0.80202 0.80151,0.80202 l -0.80151,5.21157 1.60352,5.74641 c 0,0 2.67272,-2.13785 6.01359,-2.80603 3.34087,-0.66817 6.01349,-0.26769 9.62163,-0.93586 3.60814,-0.66817 5.61248,-2.00421 5.87975,-3.4742 0.26726,-1.46998 -2.27181,-4.81099 -3.34088,-6.4146 -1.06908,-1.60362 -1.87059,-2.93998 -2.13786,-4.00905 -0.26727,-1.06909 -2.67301,-7.61732 -3.20755,-8.41913 -0.53454,-0.80181 -0.53433,-1.87079 0.13384,-1.60352 0.66818,0.26726 2.27159,1.73726 3.20704,3.34088 0.93544,1.60361 1.87131,4.94451 2.27221,6.68177 0.40091,1.73724 2.40502,3.60804 2.40502,3.60804 0,0 2.00495,-0.80151 4.94492,-1.46967 2.93996,-0.66818 6.28035,1e-4 8.0176,0.401 1.73726,0.40091 6.01359,0.26717 6.01359,0.26717 0,0 -0.66776,-4.00896 -0.4005,-6.28075 0.26727,-2.27179 3.20704,-3.07372 3.20704,-3.07372 0,0 0.13364,-1.20302 0.66818,-1.20302 0.53454,0 0.40101,0.80222 0.40101,1.60403 0,0.80181 -0.13384,3.34068 -0.13384,3.87522 0,0.53454 -1.20283,1.20261 -1.73737,1.60352 -0.53454,0.4009 2.00453,1.20303 2.00453,1.20303 0,0 -0.26716,-0.93586 -0.26716,-1.60404 0,-0.66817 1.33646,-1.8709 1.73736,-2.67271 0.40091,-0.8018 1.33635,-6.41407 1.33635,-6.41407 0,0 -2.80655,-5.47936 -3.47472,-6.54844 -0.66818,-1.06908 0.93586,-0.66818 0.93586,-0.66818 l -3.47473,-3.74189 -2.11408,0.55811 -3.64526,-2.81224 -5.80739,0.48887 -3.72277,5.1511 -1.54875,3.29592 c -0.15743,0.52478 -1.21475,-0.009 -1.91616,-0.23254 0.0515,0.59225 -0.17945,1.25343 -0.35553,1.46864 -0.30068,0.3675 -1.03531,1.40358 -1.93735,0.93586 -0.46084,-0.23895 -0.55411,-0.70337 -0.5364,-1.10174 -0.40629,-0.54887 -0.33228,-1.73839 -0.33228,-1.73839 0,0 -4.81119,4.94481 -5.88026,3.87573 -1.06908,-1.06908 0.40101,-2.67271 0.40101,-2.67271 l -3.60805,0.80151 c -0.8622,-0.48633 -0.37698,-1.15207 -0.38447,-1.75235 1.86339,-3.657 2.58404,-7.93345 3.72535,-12.01167 z m 10.02264,16.00264 c 0.7684,0.56795 0.26733,1.20244 0.20051,2.23811 -0.0668,1.03566 -0.50129,3.74216 -0.60152,4.17649 -0.10021,0.4343 0.3006,1.23585 0.36742,1.56992 0.0668,0.33409 0.23412,0.63498 -0.33383,0.80202 -0.56795,0.16705 -1.30313,-0.36768 -1.36994,-1.36994 -0.0668,-1.00226 0.23399,-3.6412 0.50126,-4.61005 0.26726,-0.96885 0.40101,-1.40349 0.40101,-1.87121 0,-0.46772 0.33396,-0.86852 0.83509,-0.93534 z m -3.67522,1.30276 c 0,0 1.00249,0.46806 0.90227,1.30328 -0.10024,0.83521 -0.30076,0.63433 -0.30076,1.63659 0,1.00226 0.33398,2.37226 0.26717,2.9068 -0.0668,0.53454 0.0672,1.13585 -0.50075,1.13585 -0.56795,0 -1.30289,0.43427 -1.13585,-0.2005 0.16705,-0.63477 0.0334,-3.74158 0,-4.5434 -0.0334,-0.8018 0.43384,-2.07158 0.76792,-2.23862 z"
       id="path885"
       inkscape:connector-curvature="0" />
    <g
       aria-label="R"
       transform="matrix(1.1218277,0.04231298,-0.14013293,0.88611694,0,0)"
       style="font-style:normal;font-variant:normal;font-weight:bold;font-stretch:normal;font-size:42.75050354px;line-height:1.25;font-family:Mailston;-inkscape-font-specification:'Mailston Bold';text-align:start;text-anchor:start;opacity:1;fill:none;fill-opacity:1;stroke:#00ff00;stroke-width:0.75739074;stroke-linecap:round;stroke-linejoin:round;stroke-miterlimit:4;stroke-dasharray:none;stroke-dashoffset:0;stroke-opacity:1"
       id="text877-8-0" />
    <path
       inkscape:connector-curvature="0"
       style="font-style:normal;font-variant:normal;font-weight:bold;font-stretch:normal;font-size:medium;line-height:1.25;font-family:Mailston;-inkscape-font-specification:'Mailston Bold';text-align:start;letter-spacing:-1.31677246px;text-anchor:start;fill:#000000;fill-opacity:1;stroke:#ffffff;stroke-width:2.0940001;stroke-linecap:round;stroke-linejoin:round;stroke-miterlimit:4;stroke-dasharray:none;stroke-dashoffset:0;stroke-opacity:1"
       d="m 86.310349,250.41974 c -5.898087,2.98414 -11.675385,8.33949 -14.615656,16.11809 -0.392083,3.46878 3.373676,4.79994 3.373676,4.79994 5.02543,-14.91343 23.957562,-22.39123 26.759261,-19.14689 2.62217,3.03643 -3.307606,14.23098 -12.529655,19.47163 0.828262,-4.49611 2.175487,-9.03865 3.7955,-13.78659 -2.727254,-0.18218 -5.446777,0.0965 -8.123742,2.97871 -1.712659,8.47531 -2.837947,18.07064 0.03443,26.5734 2.070515,3.32145 6.114038,2.27043 4.093847,1.07945 -0.683521,-3.71823 -0.828102,-7.33982 -0.567388,-10.94706 5.20583,2.95153 12.744918,7.23569 16.590898,5.47565 5.43983,-2.48941 2.8628,-8.26514 2.8628,-8.26514 0,0 -0.047,3.90006 -2.61661,5.26343 -2.80968,1.4908 -9.49608,-3.06525 -14.023834,-6.60616 8.553753,-6.41174 15.971364,-16.84046 12.548144,-22.8644 -2.21401,-3.89606 -9.998256,-3.98049 -17.581674,-0.14406 z M 186.77138,203.20733 c -0.25417,0.12821 -0.47845,0.2701 -0.67306,0.42454 -0.2461,0.17421 -0.36958,0.33631 -0.37013,0.48688 -0.24904,1.51655 -0.42629,3.1978 -0.54107,4.99225 l -5.34321,2.69523 3.16034,1.49612 2.05086,-1.15746 c -0.0825,3.257 0.007,6.76665 0.23039,10.28706 0.15948,1.74822 0.38872,3.38577 0.68831,4.91302 0.13369,0.68153 0.2865,1.3131 0.45353,1.90796 -0.0406,0.29572 -0.0825,0.59344 -0.1292,0.89689 -0.0888,0.69607 -0.2135,1.34769 -0.37492,1.95516 -0.14803,0.57568 -0.33892,1.0856 -0.57269,1.52917 -0.21384,0.43352 -0.47351,0.71446 -0.77913,0.84356 -0.29904,0.15084 -0.55095,0.0405 -0.75522,-0.33247 -0.18427,-0.383 -0.33826,-0.93192 -0.4617,-1.64622 -0.10351,-0.72434 -0.18333,-1.56096 -0.23958,-2.50953 -0.0628,-0.97034 -0.11211,-1.97229 -0.14817,-3.00621 -0.0161,-1.044 -0.0323,-2.08776 -0.0484,-3.13175 -0.0161,-1.04397 -0.0489,-1.99186 -0.0988,-2.8434 -0.006,-0.24762 -0.13109,-0.47258 -0.37587,-0.67477 -0.22478,-0.21226 -0.50953,-0.39419 -0.8539,-0.54614 -0.34437,-0.15194 -0.72205,-0.26247 -1.13306,-0.33071 -0.3911,-0.0782 -0.75882,-0.11796 -1.10375,-0.11935 -0.35149,-0.0232 -0.65386,0.004 -0.90621,0.0812 -0.2324,0.0672 -0.35872,0.18102 -0.37921,0.34167 -0.10051,0.27614 -0.28454,0.76978 -0.55246,1.48108 -0.26789,0.71128 -0.5665,1.58827 -0.89532,2.63088 -0.33537,1.02089 -0.67463,2.18151 -1.01765,3.48179 -0.34957,1.27854 -0.66936,2.6172 -0.95967,4.01615 -0.0678,0.38486 -0.13533,0.7696 -0.20305,1.15446 -0.0677,0.38487 -0.13576,0.76983 -0.2035,1.15469 -0.12289,-0.86486 -0.18582,-1.75959 -0.18909,-2.68481 -0.01,-0.94695 0.003,-1.85565 0.0398,-2.72568 0.0497,-0.90183 0.10223,-1.75505 0.15825,-2.55987 0.056,-0.80478 0.10204,-1.52932 0.13757,-2.17348 -0.0127,-0.19405 -0.15183,-0.31168 -0.41672,-0.35342 -0.24526,-0.0517 -0.55036,-0.0354 -0.91551,0.0485 -0.35174,0.0523 -0.7468,0.15111 -1.18515,0.29708 -0.41838,0.13591 -0.80695,0.29459 -1.16579,0.4756 -0.35887,0.18101 -0.65482,0.38049 -0.88778,0.59818 -0.23955,0.19595 -0.3596,0.36914 -0.36012,0.51971 -0.018,1.31171 5.5e-4,2.62964 0.0554,3.95467 0.0549,1.32502 0.1628,2.63581 0.3239,3.9323 0.16114,1.29649 0.39519,2.56872 0.70243,3.81656 0.0386,0.1577 0.0835,0.31224 0.12547,0.46827 -0.0369,0.26808 -0.077,0.53715 -0.12117,0.80717 -0.1497,1.02741 -0.36205,1.96125 -0.63708,2.80138 -0.28156,0.81837 -0.64497,1.32724 -1.09014,1.52675 -0.36539,0.15926 -0.66982,-0.0127 -0.91344,-0.5161 -0.22361,-0.51347 -0.40345,-1.22437 -0.53945,-2.13274 -0.13601,-0.90834 -0.22156,-1.95444 -0.25705,-3.13896 -0.0421,-1.20624 -0.0609,-2.41199 -0.0566,-3.61661 0.004,-1.20461 0.035,-2.36009 0.0921,-3.46605 0.0571,-1.10594 0.12357,-2.02864 0.19921,-2.76818 -0.0126,-0.1941 -0.1418,-0.31673 -0.38693,-0.36845 -0.25181,-0.0733 -0.55328,-0.0841 -0.90504,-0.0324 -0.3583,0.0304 -0.74673,0.11378 -1.16512,0.24966 -0.42494,0.11419 -0.82019,0.2511 -1.1856,0.41036 -0.36541,0.15929 -0.67789,0.34199 -0.93731,0.54803 -0.24611,0.17421 -0.36916,0.33607 -0.36969,0.48664 -0.0137,0.10707 -0.031,0.31655 -0.052,0.62777 -10e-4,0.30117 -0.005,0.51631 -0.0122,0.64513 -0.928,-0.1832 -1.7603,-0.20211 -2.49714,-0.0556 -0.74337,0.12447 -1.37406,0.31776 -1.8924,0.57922 -0.51833,0.26145 -0.93058,0.53188 -1.23676,0.81151 -0.30615,0.27967 -0.49287,0.46138 -0.55951,0.54509 -0.52626,0.61616 -0.95324,1.40797 -1.28178,2.3753 -0.3351,0.94557 -0.5847,1.98572 -0.74801,3.12021 -0.14339,1.12442 -0.19376,2.28985 -0.15173,3.49608 0.0355,1.18451 0.16058,2.32385 0.3755,3.41786 0.10929,0.62762 0.25241,1.22368 0.42211,1.79557 -0.0314,0.22241 -0.0617,0.44335 -0.0967,0.67007 -0.0888,0.69608 -0.2135,1.34767 -0.3749,1.95514 -0.14803,0.57568 -0.33895,1.08562 -0.57271,1.52919 -0.21383,0.43352 -0.47399,0.71469 -0.77957,0.84378 -0.29906,0.15084 -0.55049,0.0402 -0.75476,-0.3327 -0.18453,-0.38288 -0.33829,-0.93191 -0.46171,-1.64621 -0.10352,-0.72434 -0.18334,-1.56097 -0.23957,-2.50955 -0.0628,-0.97032 -0.11213,-1.97228 -0.14818,-3.00621 -0.0161,-1.04398 -0.0323,-2.08774 -0.0484,-3.13173 -0.0161,-1.04397 -0.0488,-1.99186 -0.0989,-2.84341 -0.006,-0.24762 -0.13108,-0.47259 -0.37587,-0.67476 -0.22476,-0.21228 -0.50951,-0.3942 -0.8539,-0.54614 -0.34438,-0.15195 -0.72205,-0.26247 -1.13307,-0.3307 -0.39107,-0.0783 -0.75925,-0.11776 -1.10421,-0.11916 -0.35147,-0.0232 -0.65336,0.004 -0.90572,0.0809 -0.23242,0.0671 -0.3588,0.18107 -0.3792,0.34166 -0.10052,0.27614 -0.28457,0.76979 -0.55249,1.4811 -0.26791,0.71129 -0.56649,1.58827 -0.89532,2.63089 -0.33538,1.02087 -0.67463,2.18149 -1.01763,3.48177 -0.34959,1.27854 -0.66938,2.61721 -0.95969,4.01615 -0.0678,0.38487 -0.13531,0.7696 -0.20304,1.15448 -0.0678,0.38485 -0.13578,0.76981 -0.20349,1.15467 -0.12291,-0.86487 -0.18582,-1.75961 -0.1891,-2.6848 -0.01,-0.94696 0.004,-1.85569 0.0398,-2.72568 0.0497,-0.90184 0.10234,-1.75507 0.15825,-2.55987 0.056,-0.80479 0.10204,-1.52932 0.13757,-2.17349 -0.0126,-0.19404 -0.15182,-0.31167 -0.41671,-0.35341 -0.24525,-0.0517 -0.55036,-0.0354 -0.9155,0.0485 -0.35175,0.0522 -0.74681,0.15109 -1.18514,0.29704 -0.41838,0.13593 -0.80695,0.29459 -1.1658,0.47562 -0.35885,0.181 -0.6549,0.38052 -0.88777,0.59818 -0.23956,0.19596 -0.35969,0.36918 -0.36012,0.5197 -0.018,1.31173 4.6e-4,2.62966 0.0554,3.95468 0.0549,1.32502 0.16277,2.63582 0.32388,3.93231 0.16112,1.29648 0.39519,2.56872 0.70242,3.81657 0.0449,0.18306 0.0965,0.3628 0.1459,0.54362 -0.0335,0.2376 -0.0691,0.47583 -0.10811,0.71494 -0.14968,1.0274 -0.36205,1.96124 -0.63708,2.80137 -0.28155,0.81839 -0.64497,1.32725 -1.09013,1.52675 -0.3654,0.15927 -0.66317,0.009 -0.89367,-0.45089 -0.23712,-0.48159 -0.43031,-1.16068 -0.57968,-2.03725 -0.47762,-3.3314 -0.37311,-5.99052 -0.0332,-8.07902 -0.0126,-0.19405 -0.14136,-0.31696 -0.38644,-0.36869 -0.25182,-0.0733 -0.55377,-0.0839 -0.90552,-0.0314 -0.35831,0.0304 -0.74976,0.10246 -1.17469,0.2166 -0.42495,0.11418 -0.81674,0.26219 -1.17558,0.4432 -0.36541,0.15927 -0.68139,0.33085 -0.94734,0.51519 -0.24611,0.17422 -0.36611,0.34737 -0.36012,0.51969 -0.0445,1.13419 0.0665,4.54351 0.7862,7.82743 -0.12698,0.59285 -0.27727,1.17795 -0.45373,1.7542 -0.33564,1.09617 -0.78024,2.09697 -1.33409,3.00258 -0.56042,0.8839 -1.27601,1.52025 -2.14637,1.90917 -0.56478,0.25985 -1.06537,0.23696 -1.50207,-0.0684 -0.41672,-0.31584 -0.76988,-0.80166 -1.05939,-1.45722 -0.28955,-0.65555 -0.51564,-1.44348 -0.67813,-2.36352 -0.16248,-0.92006 -0.26855,-1.88112 -0.31799,-2.88324 -0.0294,-1.01219 -0.006,-2.00071 0.0705,-2.96615 0.0897,-0.9972 0.22922,-1.86917 0.41766,-2.61553 0.20183,-0.77815 0.45264,-1.39299 0.75276,-1.84498 0.29361,-0.47375 0.64246,-0.68764 1.04693,-0.64116 0.33155,0.0332 0.57629,0.3105 0.73362,0.83235 0.15071,0.50015 0.10826,1.16041 -0.12693,1.98043 -0.0672,0.23429 -0.0411,0.43407 0.0777,0.59959 0.11879,0.16553 0.27429,0.30004 0.46629,0.4036 0.18543,0.0818 0.37766,0.11034 0.57675,0.085 0.19252,-0.047 0.3287,-0.16586 0.40901,-0.35668 0.49513,-1.17662 0.72155,-2.25522 0.67867,-3.2356 -0.0246,-0.53871 -0.21893,-0.992 -0.58245,-1.35975 -0.3501,-0.39955 -0.79029,-0.67867 -1.32037,-0.83715 -0.51673,-0.19025 -1.09684,-0.24827 -1.74053,-0.17409 -0.63033,0.0424 -1.24431,0.21443 -1.84238,0.5161 -1.01023,0.53462 -1.84242,1.35522 -2.49652,2.46172 -0.64068,1.07467 -1.12629,2.28402 -1.45617,3.62779 -0.30999,1.33372 -0.46434,2.72661 -0.46297,4.17884 0.0147,1.42043 0.18288,2.73874 0.50352,3.95477 0.059,0.24038 0.12505,0.47183 0.19576,0.69858 -0.14646,0.39718 -0.32598,0.76138 -0.53968,1.09056 -0.56697,0.86215 -1.19576,1.47978 -1.88699,1.85349 l -0.17959,0.0905 c -0.0664,0.008 -0.1193,0.0228 -0.15915,0.043 0.14338,-1.12444 0.19056,-2.26316 0.14174,-3.41587 -0.0355,-1.18451 -0.17407,-2.29196 -0.41575,-3.32235 -0.22833,-1.06219 -0.54652,-2.00378 -0.95479,-2.8249 -0.41496,-0.8428 -0.9203,-1.48987 -1.51566,-1.94106 -0.36377,-0.29246 -0.84756,-0.44924 -1.45112,-0.47044 -0.60354,-0.0212 -1.24031,0.0748 -1.91104,0.28786 -0.6773,0.19134 -1.34818,0.47957 -2.01292,0.86497 -0.64478,0.37533 -1.19062,0.81345 -1.63687,1.3141 -0.48011,0.69308 -0.89082,1.50117 -1.23248,2.42502 -0.3217,0.91379 -0.55741,1.88448 -0.70708,2.91189 -0.14966,1.02741 -0.20977,2.08512 -0.18057,3.17261 0.0227,1.06572 0.14123,2.10801 0.35641,3.12672 0.21524,1.01869 0.53665,1.97091 0.96457,2.85726 0.4214,0.86461 0.9563,1.60937 1.60409,2.23453 0.50223,0.5232 1.12137,0.82465 1.85738,0.9043 0.72945,0.0579 1.45944,-0.0343 2.19,-0.2776 0.75046,-0.25331 1.44164,-0.62706 2.07359,-1.1212 0.65189,-0.50419 1.14833,-1.06789 1.48888,-1.69058 0.24033,-0.42182 0.43106,-0.89376 0.57226,-1.41588 0.14119,-0.52212 0.26888,-1.01244 0.3833,-1.47096 l 0.63748,-0.17119 c 0.22586,-0.0889 0.44519,-0.19952 0.65794,-0.33187 0.97033,-0.5145 1.8357,-1.37691 2.59631,-2.58723 0.0383,-0.06 0.0726,-0.12467 0.10941,-0.18634 0.10072,0.1712 0.20529,0.33861 0.31628,0.49791 0.58717,0.88119 1.31125,1.41733 2.17289,1.60897 0.31819,0.0649 0.68614,0.10514 1.10398,0.11985 0.41129,-0.007 0.83943,-0.0352 1.28405,-0.0841 0.45796,-0.0808 0.90595,-0.19406 1.34427,-0.34002 0.44486,-0.12425 0.85658,-0.2817 1.23539,-0.47278 1.14974,-0.60499 2.06833,-1.40675 2.75519,-2.40452 0.65721,-0.93711 1.17813,-1.95912 1.56638,-3.06379 0.31546,0.57779 0.69847,0.9684 1.15029,1.16772 0.35746,0.19545 0.84504,0.24997 1.46225,0.16408 0.63716,-0.0959 1.2745,-0.26748 1.9122,-0.51399 0.63104,-0.26824 1.19908,-0.59211 1.70463,-0.9723 0.5055,-0.38025 0.82898,-0.75637 0.96964,-1.12793 0.23211,-0.51838 0.41725,-1.15985 0.56087,-1.91139 0.20767,0.30535 0.46837,0.52964 0.78453,0.66913 0.47029,0.18864 0.921,0.27459 1.35224,0.25747 0.44462,-0.049 0.81649,-0.18632 1.11581,-0.41247 0.29932,-0.22609 0.40618,-0.48073 0.32099,-0.76342 -0.0876,-1.43374 -0.0491,-2.90592 0.11555,-4.41685 0.16468,-1.51093 0.38897,-3.01436 0.67302,-4.51036 0.24334,-1.25001 0.5161,-2.44009 0.81871,-3.56969 0.30259,-1.12959 0.60854,-2.17305 0.91716,-3.13033 0.0486,1.228 0.12691,2.51637 0.23479,3.86476 0.1278,1.33835 0.30204,2.60284 0.52327,3.79385 0.23456,1.15924 0.53957,2.17049 0.91452,3.03346 0.36844,0.84122 0.82749,1.37396 1.37723,1.59766 0.35749,0.19542 0.84506,0.24994 1.46227,0.16406 0.61721,-0.0859 1.23119,-0.25789 1.84238,-0.51609 0.63112,-0.26827 1.18973,-0.58737 1.67533,-0.95752 0.50552,-0.38024 0.82852,-0.75612 0.96918,-1.12768 0.26737,-0.56073 0.48527,-1.28439 0.65431,-2.17128 0.0118,-0.0617 0.022,-0.12499 0.0334,-0.18705 0.12704,0.16549 0.25945,0.31865 0.39741,0.45817 0.337,0.35606 0.80733,0.54472 1.41088,0.56592 0.60354,0.0212 1.21393,-0.0865 1.83168,-0.32303 0.61776,-0.23648 1.1864,-0.59854 1.70556,-1.08587 0.5391,-0.49738 0.9061,-1.07048 1.10082,-1.71981 0.16797,-0.58572 0.31607,-1.23686 0.44471,-1.95304 0.14201,-0.74799 0.2579,-1.54507 0.34722,-2.39173 0.22912,0.83633 0.49844,1.53945 0.80815,2.10968 0.32962,0.56019 0.71954,0.93992 1.16988,1.13862 0.3575,0.19543 0.8549,0.24499 1.49205,0.14904 0.63714,-0.0959 1.2642,-0.26229 1.88196,-0.49876 0.63104,-0.26823 1.19955,-0.59233 1.70509,-0.97253 0.50552,-0.38026 0.82853,-0.75613 0.96918,-1.12768 0.23725,-0.52988 0.42609,-1.18788 0.57091,-1.96135 0.21115,0.32292 0.48015,0.55758 0.80795,0.70221 0.47029,0.18863 0.921,0.27458 1.35223,0.25746 0.44463,-0.049 0.8165,-0.18633 1.11582,-0.41246 0.29929,-0.22609 0.40618,-0.48074 0.321,-0.76343 -0.0876,-1.43376 -0.0491,-2.90592 0.11555,-4.41685 0.16468,-1.51093 0.38897,-3.01436 0.67302,-4.51035 0.24333,-1.25001 0.51656,-2.44032 0.81917,-3.56993 0.30257,-1.12959 0.60807,-2.17282 0.91669,-3.1301 0.0486,1.228 0.12691,2.51637 0.23477,3.86477 0.12783,1.33835 0.30206,2.60283 0.52327,3.79385 0.23459,1.15923 0.5396,2.17049 0.91455,3.03345 0.36844,0.84122 0.82748,1.37395 1.37722,1.59766 0.35749,0.19542 0.84507,0.24994 1.46227,0.16407 0.61722,-0.0859 1.23118,-0.25789 1.84239,-0.51609 0.63113,-0.26827 1.18973,-0.58738 1.67533,-0.95752 0.50549,-0.38024 0.82852,-0.75613 0.96918,-1.12769 0.26737,-0.56072 0.48526,-1.2844 0.65431,-2.17126 0.009,-0.05 0.0178,-0.10112 0.0272,-0.15124 0.30686,0.42682 0.6489,0.72869 1.02871,0.89625 0.35749,0.19544 0.85489,0.24501 1.49204,0.14903 0.65709,-0.10599 1.30428,-0.28251 1.94196,-0.52901 0.65106,-0.27833 1.22935,-0.60737 1.7349,-0.98757 0.52542,-0.39029 0.85875,-0.77138 0.99941,-1.14294 0.26082,-0.58245 0.45904,-1.29621 0.59475,-2.14122 0.0395,-0.21718 0.0768,-0.43723 0.11163,-0.66012 0.16014,0.14997 0.35481,0.29024 0.59355,0.41751 0.41049,0.21879 0.88442,0.38055 1.42135,0.48547 0.5369,0.10493 1.1069,0.13014 1.71075,0.0758 0.60381,-0.054 1.17798,-0.206 1.72279,-0.45577 1.30897,-0.6102 2.39342,-1.43257 3.25286,-2.46729 0.87939,-1.04478 1.57995,-2.18695 2.10187,-3.42718 0.53525,-1.272 0.93159,-2.58684 1.1886,-3.94394 0.27037,-1.3889 0.44788,-2.7433 0.53227,-4.06343 0.0137,-0.10707 -0.0694,-0.19063 -0.24825,-0.25071 -0.15893,-0.0702 -0.3512,-0.0986 -0.57678,-0.0851 -0.23213,-0.008 -0.43757,0.033 -0.61699,0.12355 -0.186,0.0687 -0.2796,0.17837 -0.2801,0.32897 -0.05,0.97713 -0.18338,2.05896 -0.39995,3.24537 -0.21658,1.18641 -0.54554,2.34183 -0.98742,3.46653 -0.42848,1.09289 -0.97639,2.09564 -1.64304,3.00806 -0.67319,0.89067 -1.4946,1.55589 -2.46466,1.9951 -0.44514,0.19949 -0.84007,0.22309 -1.18445,0.0711 -0.34437,-0.15194 -0.6384,-0.44178 -0.88229,-0.86986 -0.24385,-0.4281 -0.43763,-0.95695 -0.5813,-1.5859 -0.14366,-0.62892 -0.24711,-1.31536 -0.31074,-2.05981 0.57845,-0.3669 1.15382,-0.81994 1.72626,-1.35919 0.5724,-0.53924 1.09492,-1.12894 1.56821,-1.76848 0.48666,-0.67133 0.91057,-1.36066 1.27133,-2.06868 0.37417,-0.73985 0.65572,-1.48339 0.84416,-2.22974 0.25593,-1.05595 0.22253,-1.96557 -0.0997,-2.72987 -0.32228,-0.7643 -0.78754,-1.35634 -1.39631,-1.77571 -0.5888,-0.42945 -1.24109,-0.6891 -1.95717,-0.7788 -0.70269,-0.1215 -1.3232,-0.0462 -1.8615,0.22499 -1.03667,0.52292 -1.89511,1.25639 -2.57512,2.2006 -0.68661,0.92252 -1.21131,1.96372 -1.57374,3.12349 -0.36241,1.15975 -0.58223,2.37272 -0.65981,3.63932 -0.0776,1.26659 -0.0323,2.48413 0.1359,3.65179 0.14831,1.17769 0.39314,2.25605 0.73447,3.23618 0.004,0.008 0.006,0.0164 0.009,0.0244 -0.0226,0.2139 -0.0446,0.425 -0.0698,0.64487 -0.0888,0.69607 -0.21009,1.35878 -0.36491,1.98798 -0.14148,0.59743 -0.32595,1.12863 -0.55316,1.59395 -0.23379,0.44356 -0.51015,0.74574 -0.82914,0.90665 -0.29904,0.15084 -0.57082,0.0499 -0.81501,-0.30288 -0.23069,-0.38465 -0.44081,-0.92976 -0.63062,-1.63562 -0.16986,-0.71593 -0.32623,-1.57638 -0.46851,-2.58174 -0.12234,-1.01546 -0.22789,-2.08939 -0.31663,-3.22199 -0.0887,-1.13259 -0.16416,-2.297 -0.22614,-3.4932 -0.0899,-3.05373 0.0547,-6.5508 0.28743,-10.06564 l 14.21859,-8.02366 -0.68147,-1.46543 -13.33691,6.7274 c 0.0954,-1.23783 0.19535,-2.47129 0.29696,-3.66672 -0.0126,-0.19402 -0.14137,-0.31694 -0.38648,-0.36865 -0.24525,-0.0517 -0.54722,-0.0622 -0.90552,-0.0314 -0.35831,0.0304 -0.74676,0.11376 -1.16514,0.24966 -0.42494,0.11418 -0.81972,0.25087 -1.18514,0.41012 -0.0915,0.0395 -0.17967,0.0804 -0.2644,0.12323 z m -54.35221,36.9092 a 2.5965186,3.2162589 11.083245 0 0 -1.65642,4.19333 2.5965186,3.2162589 11.083245 0 0 3.3175,1.68438 2.5965186,3.2162589 11.083245 0 0 1.65642,-4.19333 2.5965186,3.2162589 11.083245 0 0 -3.3175,-1.68438 z m -20.80141,15.11581 c 0.37881,-0.19108 0.7273,-0.179 1.04485,0.0371 0.31764,0.21552 0.60833,0.57008 0.87186,1.06339 0.26342,0.49337 0.49308,1.10388 0.68949,1.83148 0.1898,0.70587 0.3364,1.45862 0.43965,2.25825 -0.724,0.26505 -1.24944,0.73074 -1.57687,1.39691 -0.3075,0.65611 -0.45282,1.35543 -0.43564,2.09826 0.0307,0.71098 0.21085,1.38439 0.54015,2.0199 0.34277,0.60366 0.81513,0.9914 1.41814,1.16318 -0.17617,1.01572 -0.4443,1.87734 -0.80507,2.58537 -0.34737,0.67623 -0.71753,1.12606 -1.10968,1.34892 -0.39874,0.20114 -0.803,0.11684 -1.21286,-0.25257 -0.39,-0.37943 -0.70568,-1.15951 -0.94686,-2.34046 -0.24141,-1.10569 -0.4026,-2.36451 -0.48373,-3.7765 -0.0876,-1.43376 -0.0891,-2.8105 -0.005,-4.13062 0.0844,-1.32013 0.25461,-2.47073 0.51023,-3.45139 0.26899,-1.01244 0.62244,-1.62947 1.06102,-1.85069 z m 88.29848,-42.84808 c 0.29905,-0.15084 0.57118,-0.16326 0.81615,-0.0363 0.26488,0.11689 0.44297,0.36544 0.53447,0.74516 0.12426,0.48841 0.0887,1.05708 -0.106,1.70641 -0.20128,0.62757 -0.48185,1.25801 -0.84235,1.89075 -0.36703,0.61099 -0.76724,1.18859 -1.2004,1.73273 -0.43313,0.54414 -0.82598,0.95525 -1.17855,1.2333 0.008,-0.42998 0.0306,-1.00477 0.0662,-1.72424 0.0557,-0.7295 0.14439,-1.46327 0.26649,-2.20119 0.14201,-0.748 0.33705,-1.43506 0.58476,-2.06101 0.26764,-0.636 0.62062,-1.06435 1.05922,-1.28559 z m -39.35179,20.76024 c 0.31605,-0.15941 0.77947,-0.14697 1.38972,0.0366 l -0.0161,0.12117 c -0.0162,0.34861 -0.0332,0.86767 -0.0507,1.55731 -0.0228,0.67317 -0.0575,1.41926 -0.10558,2.23777 -0.0329,0.81089 -0.0885,1.66149 -0.16692,2.55198 -0.0683,0.86652 -0.16368,1.6714 -0.28655,2.41417 -0.10779,0.73518 -0.24063,1.35979 -0.39773,1.87398 -0.14206,0.5066 -0.3182,0.81271 -0.52889,0.91899 -0.25586,0.12906 -0.46807,-0.0565 -0.63651,-0.55787 -0.16839,-0.50129 -0.29628,-1.15552 -0.38349,-1.96252 -0.0922,-0.82341 -0.13362,-1.73849 -0.12495,-2.74514 0.009,-1.00663 0.0593,-1.9591 0.15273,-2.85722 0.0884,-0.91451 0.23157,-1.70544 0.42927,-2.37249 0.19771,-0.66705 0.43968,-1.07274 0.72564,-1.21699 z"
       id="path1034-1" />
    <path
       inkscape:connector-curvature="0"
       style="font-style:normal;font-variant:normal;font-weight:bold;font-stretch:normal;font-size:medium;line-height:1.25;font-family:Mailston;-inkscape-font-specification:'Mailston Bold';text-align:start;letter-spacing:-1.31677246px;text-anchor:start;display:inline;fill:#000000;fill-opacity:1;stroke:#000000;stroke-width:1.19400001;stroke-linecap:round;stroke-linejoin:round;stroke-miterlimit:4;stroke-dasharray:none;stroke-dashoffset:0;stroke-opacity:1"
       d="m 85.281638,249.52349 c -5.898087,2.98414 -11.675385,8.33949 -14.615656,16.11809 -0.392083,3.46878 3.373676,4.79994 3.373676,4.79994 5.02543,-14.91343 23.957559,-22.39123 26.759272,-19.14689 2.62216,3.03643 -3.307613,14.23098 -12.529666,19.47163 0.828262,-4.49611 2.175487,-9.03865 3.7955,-13.78659 -2.727254,-0.18218 -5.446777,0.0965 -8.123742,2.97871 -1.712659,8.47531 -2.837947,18.07064 0.03443,26.5734 2.070515,3.32145 6.114038,2.27043 4.093847,1.07945 -0.683521,-3.71823 -0.828102,-7.33982 -0.567388,-10.94706 5.20583,2.95153 12.744929,7.23569 16.590899,5.47565 5.43983,-2.48941 2.8628,-8.26514 2.8628,-8.26514 0,0 -0.047,3.90006 -2.6166,5.26343 -2.80969,1.4908 -9.496091,-3.06525 -14.023845,-6.60616 8.553752,-6.41174 15.971365,-16.84046 12.548145,-22.8644 -2.21401,-3.89606 -9.998257,-3.98049 -17.581675,-0.14406 z M 185.74267,202.31108 c -0.25417,0.12821 -0.47845,0.2701 -0.67306,0.42454 -0.2461,0.17421 -0.36958,0.33631 -0.37013,0.48688 -0.24904,1.51655 -0.42629,3.1978 -0.54107,4.99225 l -5.34321,2.69523 3.16034,1.49612 2.05086,-1.15746 c -0.0825,3.257 0.007,6.76665 0.23039,10.28706 0.15948,1.74822 0.38872,3.38577 0.68831,4.91302 0.13369,0.68153 0.2865,1.3131 0.45353,1.90796 -0.0406,0.29572 -0.0825,0.59344 -0.1292,0.89689 -0.0888,0.69607 -0.2135,1.34769 -0.37492,1.95516 -0.14803,0.57568 -0.33892,1.0856 -0.57269,1.52917 -0.21384,0.43352 -0.47351,0.71446 -0.77913,0.84356 -0.29904,0.15084 -0.55095,0.0405 -0.75522,-0.33247 -0.18427,-0.383 -0.33826,-0.93192 -0.4617,-1.64622 -0.10351,-0.72434 -0.18333,-1.56096 -0.23958,-2.50953 -0.0628,-0.97034 -0.11211,-1.97229 -0.14817,-3.00621 -0.0161,-1.044 -0.0323,-2.08776 -0.0484,-3.13175 -0.0161,-1.04397 -0.0489,-1.99186 -0.0988,-2.8434 -0.006,-0.24762 -0.13109,-0.47258 -0.37587,-0.67477 -0.22478,-0.21226 -0.50953,-0.39419 -0.8539,-0.54614 -0.34437,-0.15194 -0.72205,-0.26247 -1.13306,-0.33071 -0.3911,-0.0782 -0.75882,-0.11796 -1.10375,-0.11935 -0.35149,-0.0232 -0.65386,0.004 -0.90621,0.0812 -0.2324,0.0672 -0.35872,0.18102 -0.37921,0.34167 -0.10051,0.27614 -0.28454,0.76978 -0.55246,1.48108 -0.26789,0.71128 -0.5665,1.58827 -0.89532,2.63088 -0.33537,1.02089 -0.67463,2.18151 -1.01765,3.48179 -0.34957,1.27854 -0.66936,2.6172 -0.95967,4.01615 -0.0678,0.38486 -0.13533,0.7696 -0.20305,1.15446 -0.0677,0.38487 -0.13576,0.76983 -0.2035,1.15469 -0.12289,-0.86486 -0.18582,-1.75959 -0.18909,-2.68481 -0.01,-0.94695 0.003,-1.85565 0.0398,-2.72568 0.0497,-0.90183 0.10223,-1.75505 0.15825,-2.55987 0.056,-0.80478 0.10204,-1.52932 0.13757,-2.17348 -0.0127,-0.19405 -0.15183,-0.31168 -0.41672,-0.35342 -0.24526,-0.0517 -0.55036,-0.0354 -0.91551,0.0485 -0.35174,0.0523 -0.7468,0.15111 -1.18515,0.29708 -0.41838,0.13591 -0.80695,0.29459 -1.16579,0.4756 -0.35887,0.18101 -0.65482,0.38049 -0.88778,0.59818 -0.23955,0.19595 -0.3596,0.36914 -0.36012,0.51971 -0.018,1.31171 5.3e-4,2.62964 0.0554,3.95467 0.0549,1.32502 0.1628,2.63581 0.3239,3.9323 0.16114,1.29649 0.39519,2.56872 0.70243,3.81656 0.0386,0.1577 0.0835,0.31224 0.12547,0.46827 -0.0369,0.26808 -0.077,0.53715 -0.12117,0.80717 -0.1497,1.02741 -0.36205,1.96125 -0.63708,2.80138 -0.28156,0.81837 -0.64497,1.32724 -1.09014,1.52675 -0.36539,0.15926 -0.66982,-0.0127 -0.91344,-0.5161 -0.22361,-0.51347 -0.40345,-1.22437 -0.53945,-2.13274 -0.13601,-0.90834 -0.22156,-1.95444 -0.25705,-3.13896 -0.0421,-1.20624 -0.0609,-2.41199 -0.0566,-3.61661 0.004,-1.20461 0.035,-2.36009 0.0921,-3.46605 0.0571,-1.10594 0.12357,-2.02864 0.19921,-2.76818 -0.0126,-0.1941 -0.1418,-0.31673 -0.38693,-0.36845 -0.25181,-0.0733 -0.55328,-0.0841 -0.90504,-0.0324 -0.3583,0.0304 -0.74673,0.11378 -1.16512,0.24966 -0.42494,0.11419 -0.82019,0.2511 -1.1856,0.41036 -0.36541,0.15929 -0.67789,0.34199 -0.93731,0.54803 -0.24611,0.17421 -0.36916,0.33607 -0.36969,0.48664 -0.0137,0.10707 -0.031,0.31655 -0.052,0.62777 -0.001,0.30117 -0.005,0.51631 -0.0122,0.64513 -0.928,-0.1832 -1.7603,-0.20211 -2.49714,-0.0556 -0.74337,0.12447 -1.37406,0.31776 -1.8924,0.57922 -0.51833,0.26145 -0.93058,0.53188 -1.23676,0.8115 -0.30615,0.27968 -0.49287,0.46138 -0.55951,0.5451 -0.52626,0.61616 -0.95324,1.40797 -1.28178,2.3753 -0.3351,0.94557 -0.5847,1.98572 -0.74801,3.12021 -0.14339,1.12442 -0.19376,2.28985 -0.15173,3.49608 0.0355,1.18451 0.16058,2.32385 0.3755,3.41786 0.10929,0.62762 0.25241,1.22368 0.42211,1.79557 -0.0314,0.22241 -0.0617,0.44335 -0.0967,0.67007 -0.0888,0.69607 -0.2135,1.34767 -0.3749,1.95514 -0.14803,0.57567 -0.33895,1.08562 -0.57271,1.52919 -0.21383,0.43352 -0.47399,0.71469 -0.77957,0.84378 -0.29906,0.15084 -0.55049,0.0402 -0.75476,-0.3327 -0.18453,-0.38288 -0.33829,-0.93191 -0.46171,-1.64621 -0.10352,-0.72435 -0.18334,-1.56097 -0.23957,-2.50955 -0.0628,-0.97032 -0.11213,-1.97228 -0.14818,-3.00621 -0.0161,-1.04398 -0.0323,-2.08774 -0.0484,-3.13173 -0.0161,-1.04397 -0.0488,-1.99186 -0.0989,-2.84341 -0.006,-0.24762 -0.13108,-0.47259 -0.37587,-0.67476 -0.22475,-0.21228 -0.5095,-0.3942 -0.8539,-0.54614 -0.34438,-0.15195 -0.72204,-0.26247 -1.13307,-0.3307 -0.39107,-0.0783 -0.75925,-0.11776 -1.10421,-0.11916 -0.35147,-0.0232 -0.65336,0.004 -0.90572,0.0809 -0.23242,0.0671 -0.3588,0.18107 -0.3792,0.34166 -0.10052,0.27614 -0.28457,0.76979 -0.55249,1.4811 -0.26791,0.71129 -0.56648,1.58827 -0.89532,2.63089 -0.33537,1.02087 -0.67463,2.18149 -1.01763,3.48177 -0.34959,1.27854 -0.66938,2.61721 -0.95969,4.01615 -0.0678,0.38487 -0.13531,0.7696 -0.20304,1.15448 -0.0678,0.38485 -0.13578,0.76981 -0.20349,1.15467 -0.1229,-0.86487 -0.18581,-1.75961 -0.1891,-2.6848 -0.01,-0.94696 0.004,-1.85569 0.0398,-2.72568 0.0497,-0.90184 0.10234,-1.75507 0.15825,-2.55987 0.056,-0.80479 0.10205,-1.52932 0.13757,-2.17349 -0.0126,-0.19404 -0.15181,-0.31167 -0.4167,-0.35341 -0.24525,-0.0517 -0.55036,-0.0354 -0.9155,0.0485 -0.35176,0.0522 -0.74682,0.15109 -1.18514,0.29704 -0.41839,0.13593 -0.80696,0.29459 -1.1658,0.47562 -0.35886,0.18099 -0.65491,0.38051 -0.88777,0.59818 -0.23957,0.19596 -0.35969,0.36918 -0.36013,0.5197 -0.018,1.31173 5.3e-4,2.62966 0.0554,3.95468 0.0549,1.32502 0.16277,2.63581 0.32388,3.93231 0.16112,1.29648 0.39519,2.56872 0.70242,3.81657 0.0449,0.18306 0.0965,0.3628 0.1459,0.54362 -0.0335,0.2376 -0.0691,0.47582 -0.1081,0.71494 -0.14968,1.02739 -0.36206,1.96124 -0.63709,2.80137 -0.28155,0.81839 -0.64497,1.32725 -1.09013,1.52675 -0.3654,0.15927 -0.66317,0.009 -0.89367,-0.45089 -0.23711,-0.48159 -0.43031,-1.16068 -0.57968,-2.03725 -0.47762,-3.33141 -0.37311,-5.99052 -0.0332,-8.07903 -0.0126,-0.19404 -0.14136,-0.31696 -0.38644,-0.36868 -0.25182,-0.0733 -0.55377,-0.0839 -0.90552,-0.0314 -0.35831,0.0304 -0.74976,0.10246 -1.17469,0.2166 -0.42495,0.11418 -0.81674,0.26219 -1.17558,0.4432 -0.36541,0.15927 -0.68139,0.33085 -0.94734,0.51519 -0.24611,0.17422 -0.36611,0.34737 -0.36012,0.51969 -0.0445,1.13419 0.0665,4.54351 0.7862,7.82743 -0.12698,0.59285 -0.27726,1.17795 -0.45373,1.7542 -0.33564,1.09617 -0.78024,2.09697 -1.33409,3.00258 -0.56042,0.8839 -1.27601,1.52025 -2.14636,1.90917 -0.56479,0.25985 -1.06538,0.23696 -1.50208,-0.0684 -0.41671,-0.31584 -0.76988,-0.80166 -1.05939,-1.45722 -0.28955,-0.65555 -0.51564,-1.44348 -0.67812,-2.36352 -0.16249,-0.92006 -0.26856,-1.88112 -0.318,-2.88324 -0.0294,-1.01219 -0.006,-2.00071 0.0705,-2.96615 0.0897,-0.9972 0.22922,-1.86917 0.41766,-2.61553 0.20183,-0.77815 0.45264,-1.39299 0.75276,-1.84498 0.29361,-0.47375 0.64246,-0.68764 1.04693,-0.64116 0.33155,0.0332 0.57629,0.3105 0.73362,0.83235 0.15071,0.50015 0.10826,1.16041 -0.12693,1.98043 -0.0672,0.23429 -0.0411,0.43407 0.0777,0.59959 0.11879,0.16553 0.27429,0.30004 0.46629,0.4036 0.18543,0.0818 0.37766,0.11034 0.57675,0.085 0.19252,-0.047 0.3287,-0.16586 0.40901,-0.35668 0.49513,-1.17662 0.72155,-2.25522 0.67867,-3.2356 -0.0246,-0.53871 -0.21893,-0.992 -0.58245,-1.35975 -0.3501,-0.39955 -0.79029,-0.67867 -1.32037,-0.83715 -0.51673,-0.19025 -1.09684,-0.24827 -1.74053,-0.17409 -0.63033,0.0424 -1.24431,0.21443 -1.84238,0.5161 -1.01022,0.53462 -1.84241,1.35522 -2.49651,2.46172 -0.64068,1.07467 -1.1263,2.28402 -1.45618,3.62779 -0.30998,1.33372 -0.46433,2.72661 -0.46296,4.17884 0.0147,1.42043 0.18287,2.73874 0.50351,3.95477 0.059,0.24038 0.12505,0.47183 0.19577,0.69858 -0.14647,0.39718 -0.32598,0.76138 -0.53969,1.09056 -0.56697,0.86215 -1.19576,1.47978 -1.88698,1.85349 l -0.1796,0.0905 c -0.0664,0.008 -0.1193,0.0228 -0.15915,0.043 0.14338,-1.12444 0.19056,-2.26316 0.14175,-3.41587 -0.0355,-1.18451 -0.17407,-2.29196 -0.41575,-3.32235 -0.22833,-1.06219 -0.54653,-2.00378 -0.9548,-2.8249 -0.41495,-0.8428 -0.9203,-1.48987 -1.51566,-1.94106 -0.36377,-0.29246 -0.84755,-0.44924 -1.45112,-0.47044 -0.60354,-0.0212 -1.24031,0.0748 -1.91104,0.28786 -0.6773,0.19134 -1.34818,0.47957 -2.01291,0.86497 -0.64478,0.37533 -1.19063,0.81345 -1.63688,1.3141 -0.48011,0.69308 -0.89081,1.50117 -1.23247,2.42502 -0.32171,0.91379 -0.55741,1.88448 -0.70709,2.91189 -0.14966,1.02741 -0.20977,2.08512 -0.18057,3.17261 0.0227,1.06572 0.14123,2.10801 0.35641,3.12672 0.21524,1.01869 0.53665,1.97091 0.96458,2.85726 0.42139,0.86461 0.95629,1.60937 1.60408,2.23453 0.50223,0.5232 1.12138,0.82465 1.85738,0.9043 0.72945,0.0579 1.45945,-0.0343 2.19,-0.2776 0.75047,-0.25331 1.44164,-0.62706 2.07359,-1.1212 0.6519,-0.50419 1.14833,-1.06789 1.48889,-1.69058 0.24033,-0.42182 0.43105,-0.89376 0.57225,-1.41588 0.14119,-0.52212 0.26889,-1.01244 0.38331,-1.47096 l 0.63747,-0.17119 c 0.22586,-0.0889 0.44519,-0.19952 0.65795,-0.33187 0.97033,-0.5145 1.83569,-1.37691 2.5963,-2.58723 0.0383,-0.06 0.0725,-0.12467 0.10942,-0.18634 0.10072,0.1712 0.20528,0.33861 0.31627,0.49791 0.58718,0.88119 1.31126,1.41733 2.17289,1.60897 0.31819,0.0649 0.68614,0.10514 1.10398,0.11985 0.41129,-0.007 0.83943,-0.0352 1.28405,-0.0841 0.45796,-0.0808 0.90595,-0.19406 1.34427,-0.34002 0.44486,-0.12425 0.85658,-0.2817 1.23539,-0.47278 1.14974,-0.60499 2.06833,-1.40675 2.75519,-2.40452 0.65721,-0.93711 1.17813,-1.95912 1.56638,-3.06379 0.31546,0.57779 0.69847,0.9684 1.15029,1.16772 0.35746,0.19545 0.84504,0.24997 1.46225,0.16408 0.63716,-0.0959 1.2745,-0.26748 1.9122,-0.51399 0.63104,-0.26824 1.19908,-0.59211 1.70463,-0.9723 0.5055,-0.38025 0.82898,-0.75637 0.96964,-1.12793 0.23211,-0.51838 0.41725,-1.15985 0.56087,-1.91139 0.20767,0.30535 0.46837,0.52964 0.78453,0.66913 0.47029,0.18864 0.921,0.27459 1.35224,0.25747 0.44462,-0.049 0.81649,-0.18632 1.11581,-0.41247 0.29932,-0.22609 0.40618,-0.48073 0.32099,-0.76342 -0.0876,-1.43374 -0.0491,-2.90592 0.11555,-4.41685 0.16468,-1.51093 0.38897,-3.01436 0.67302,-4.51036 0.24334,-1.25001 0.5161,-2.44009 0.81871,-3.56969 0.30259,-1.12959 0.60854,-2.17305 0.91716,-3.13033 0.0486,1.228 0.12691,2.51637 0.23479,3.86476 0.1278,1.33835 0.30204,2.60284 0.52327,3.79385 0.23456,1.15924 0.53957,2.17049 0.91452,3.03346 0.36844,0.84122 0.82749,1.37396 1.37723,1.59766 0.35749,0.19542 0.84506,0.24994 1.46227,0.16406 0.61721,-0.0859 1.23119,-0.25789 1.84238,-0.51609 0.63112,-0.26827 1.18973,-0.58737 1.67533,-0.95752 0.50552,-0.38024 0.82852,-0.75612 0.96918,-1.12768 0.26737,-0.56073 0.48527,-1.28439 0.65431,-2.17128 0.0118,-0.0617 0.022,-0.12499 0.0334,-0.18705 0.12704,0.16549 0.25945,0.31865 0.39741,0.45817 0.337,0.35606 0.80733,0.54472 1.41088,0.56592 0.60354,0.0212 1.21393,-0.0865 1.83168,-0.32303 0.61776,-0.23648 1.1864,-0.59854 1.70556,-1.08587 0.5391,-0.49738 0.9061,-1.07048 1.10082,-1.71981 0.16797,-0.58572 0.31607,-1.23686 0.44471,-1.95304 0.14201,-0.74799 0.2579,-1.54507 0.34722,-2.39173 0.22912,0.83633 0.49844,1.53945 0.80815,2.10968 0.32962,0.56019 0.71954,0.93992 1.16988,1.13862 0.3575,0.19543 0.8549,0.24499 1.49205,0.14904 0.63714,-0.0959 1.2642,-0.26229 1.88196,-0.49876 0.63104,-0.26823 1.19955,-0.59233 1.70509,-0.97253 0.50552,-0.38026 0.82853,-0.75613 0.96918,-1.12768 0.23725,-0.52988 0.42609,-1.18788 0.57091,-1.96135 0.21115,0.32292 0.48015,0.55758 0.80795,0.70221 0.47029,0.18863 0.921,0.27458 1.35223,0.25746 0.44463,-0.049 0.8165,-0.18633 1.11582,-0.41246 0.29929,-0.22609 0.40618,-0.48074 0.321,-0.76343 -0.0876,-1.43376 -0.0491,-2.90592 0.11555,-4.41685 0.16468,-1.51093 0.38897,-3.01436 0.67302,-4.51035 0.24333,-1.25001 0.51656,-2.44032 0.81917,-3.56993 0.30257,-1.12959 0.60807,-2.17282 0.91669,-3.1301 0.0486,1.228 0.12691,2.51637 0.23477,3.86477 0.12783,1.33835 0.30206,2.60283 0.52327,3.79385 0.23459,1.15923 0.5396,2.17049 0.91455,3.03345 0.36844,0.84122 0.82748,1.37395 1.37722,1.59766 0.35749,0.19542 0.84507,0.24994 1.46227,0.16407 0.61722,-0.0859 1.23118,-0.25789 1.84239,-0.51609 0.63113,-0.26827 1.18973,-0.58738 1.67533,-0.95752 0.50549,-0.38024 0.82852,-0.75613 0.96918,-1.12769 0.26737,-0.56072 0.48526,-1.2844 0.65431,-2.17126 0.009,-0.05 0.0178,-0.10112 0.0272,-0.15124 0.30686,0.42682 0.6489,0.72869 1.02871,0.89625 0.35749,0.19544 0.85489,0.24501 1.49204,0.14903 0.65709,-0.10599 1.30428,-0.28251 1.94196,-0.52901 0.65106,-0.27833 1.22935,-0.60737 1.7349,-0.98757 0.52542,-0.39029 0.85875,-0.77138 0.99941,-1.14294 0.26082,-0.58245 0.45904,-1.29621 0.59475,-2.14122 0.0395,-0.21718 0.0768,-0.43723 0.11163,-0.66012 0.16014,0.14997 0.35481,0.29024 0.59355,0.41751 0.41049,0.21879 0.88442,0.38055 1.42135,0.48547 0.5369,0.10493 1.1069,0.13014 1.71075,0.0758 0.60381,-0.054 1.17798,-0.206 1.72279,-0.45577 1.30897,-0.6102 2.39342,-1.43257 3.25286,-2.46729 0.87939,-1.04478 1.57995,-2.18695 2.10187,-3.42718 0.53525,-1.272 0.93159,-2.58684 1.1886,-3.94394 0.27037,-1.3889 0.44788,-2.7433 0.53227,-4.06343 0.0137,-0.10707 -0.0694,-0.19063 -0.24825,-0.25071 -0.15893,-0.0702 -0.3512,-0.0986 -0.57678,-0.0851 -0.23213,-0.008 -0.43757,0.033 -0.61699,0.12355 -0.186,0.0687 -0.2796,0.17837 -0.2801,0.32897 -0.05,0.97713 -0.18338,2.05896 -0.39995,3.24537 -0.21658,1.18641 -0.54554,2.34183 -0.98742,3.46653 -0.42848,1.09289 -0.97639,2.09564 -1.64304,3.00806 -0.67319,0.89067 -1.4946,1.55589 -2.46466,1.9951 -0.44514,0.19949 -0.84007,0.22309 -1.18445,0.0711 -0.34437,-0.15194 -0.6384,-0.44178 -0.88229,-0.86986 -0.24385,-0.4281 -0.43763,-0.95695 -0.5813,-1.5859 -0.14366,-0.62892 -0.24711,-1.31536 -0.31074,-2.05981 0.57845,-0.3669 1.15382,-0.81994 1.72626,-1.35919 0.5724,-0.53924 1.09492,-1.12894 1.56821,-1.76848 0.48666,-0.67133 0.91057,-1.36066 1.27133,-2.06868 0.37417,-0.73985 0.65572,-1.48339 0.84416,-2.22974 0.25593,-1.05595 0.22253,-1.96557 -0.0997,-2.72987 -0.32228,-0.7643 -0.78754,-1.35634 -1.39631,-1.77571 -0.5888,-0.42945 -1.24109,-0.6891 -1.95717,-0.7788 -0.70269,-0.1215 -1.3232,-0.0462 -1.8615,0.22499 -1.03667,0.52292 -1.89511,1.25639 -2.57512,2.2006 -0.68661,0.92252 -1.21131,1.96372 -1.57374,3.12349 -0.36241,1.15975 -0.58223,2.37272 -0.65981,3.63932 -0.0776,1.26659 -0.0323,2.48413 0.1359,3.65179 0.14831,1.17769 0.39314,2.25605 0.73447,3.23618 0.004,0.008 0.006,0.0164 0.009,0.0244 -0.0226,0.2139 -0.0446,0.425 -0.0698,0.64487 -0.0888,0.69607 -0.21009,1.35878 -0.36491,1.98798 -0.14148,0.59743 -0.32596,1.12863 -0.55316,1.59395 -0.23379,0.44356 -0.51015,0.74574 -0.82914,0.90665 -0.29904,0.15084 -0.57082,0.0499 -0.81501,-0.30288 -0.23069,-0.38465 -0.44082,-0.92976 -0.63062,-1.63562 -0.16986,-0.71593 -0.32623,-1.57638 -0.46852,-2.58174 -0.12233,-1.01546 -0.22788,-2.08939 -0.31662,-3.22199 -0.0887,-1.13259 -0.16416,-2.297 -0.22614,-3.4932 -0.0899,-3.05373 0.0547,-6.5508 0.28743,-10.06564 l 14.21859,-8.02366 -0.68147,-1.46543 -13.33691,6.7274 c 0.0954,-1.23783 0.19535,-2.47129 0.29696,-3.66672 -0.0126,-0.19402 -0.14137,-0.31694 -0.38648,-0.36865 -0.24525,-0.0517 -0.54722,-0.0622 -0.90552,-0.0314 -0.35831,0.0304 -0.74676,0.11376 -1.16514,0.24966 -0.42494,0.11418 -0.81972,0.25087 -1.18514,0.41012 -0.0915,0.0395 -0.17967,0.0804 -0.2644,0.12323 z m -54.35221,36.9092 a 2.5965186,3.2162589 11.083245 0 0 -1.65642,4.19333 2.5965186,3.2162589 11.083245 0 0 3.3175,1.68438 2.5965186,3.2162589 11.083245 0 0 1.65642,-4.19333 2.5965186,3.2162589 11.083245 0 0 -3.3175,-1.68438 z m -20.80141,15.11581 c 0.37881,-0.19108 0.7273,-0.179 1.04486,0.0371 0.31763,0.21552 0.60832,0.57008 0.87185,1.06339 0.26342,0.49337 0.49308,1.10388 0.68949,1.83148 0.1898,0.70587 0.3364,1.45862 0.43965,2.25825 -0.72399,0.26505 -1.24944,0.73074 -1.57687,1.39691 -0.3075,0.65611 -0.45282,1.35543 -0.43564,2.09826 0.0307,0.71098 0.21085,1.38439 0.54015,2.0199 0.34277,0.60366 0.81513,0.9914 1.41814,1.16318 -0.17617,1.01572 -0.44429,1.87734 -0.80507,2.58537 -0.34737,0.67623 -0.71753,1.12606 -1.10968,1.34892 -0.39874,0.20114 -0.80299,0.11684 -1.21286,-0.25257 -0.39,-0.37943 -0.70568,-1.15951 -0.94686,-2.34046 -0.24141,-1.10569 -0.4026,-2.36451 -0.48372,-3.7765 -0.0876,-1.43376 -0.0891,-2.8105 -0.005,-4.13062 0.0844,-1.32013 0.2546,-2.47073 0.51022,-3.45139 0.26899,-1.01244 0.62244,-1.62947 1.06102,-1.85069 z m 88.29848,-42.84808 c 0.29905,-0.15084 0.57118,-0.16326 0.81615,-0.0363 0.26488,0.11689 0.44297,0.36544 0.53447,0.74516 0.12426,0.48841 0.0887,1.05708 -0.106,1.70641 -0.20128,0.62757 -0.48185,1.25801 -0.84235,1.89075 -0.36703,0.61099 -0.76724,1.18859 -1.2004,1.73273 -0.43313,0.54414 -0.82598,0.95525 -1.17855,1.2333 0.008,-0.42998 0.0306,-1.00477 0.0662,-1.72424 0.0557,-0.7295 0.14439,-1.46327 0.26649,-2.20119 0.14201,-0.748 0.33705,-1.43506 0.58476,-2.06101 0.26764,-0.636 0.62062,-1.06435 1.05922,-1.28559 z m -39.35179,20.76024 c 0.31605,-0.15941 0.77947,-0.14697 1.38972,0.0366 l -0.0161,0.12117 c -0.0162,0.34861 -0.0332,0.86767 -0.0507,1.55731 -0.0228,0.67317 -0.0575,1.41926 -0.10558,2.23777 -0.0329,0.81089 -0.0885,1.66149 -0.16692,2.55198 -0.0683,0.86652 -0.16368,1.6714 -0.28655,2.41417 -0.10779,0.73518 -0.24063,1.35979 -0.39773,1.87398 -0.14206,0.5066 -0.3182,0.81271 -0.52889,0.91899 -0.25586,0.12906 -0.46807,-0.0565 -0.63651,-0.55787 -0.16839,-0.50129 -0.29628,-1.15552 -0.38349,-1.96252 -0.0922,-0.82341 -0.13362,-1.73849 -0.12495,-2.74514 0.009,-1.00663 0.0593,-1.9591 0.15273,-2.85722 0.0884,-0.91451 0.23157,-1.70544 0.42927,-2.37249 0.19771,-0.66705 0.43968,-1.07274 0.72564,-1.21699 z"
       id="path1034-1-9" />
    <path
       inkscape:connector-curvature="0"
       style="font-style:normal;font-variant:normal;font-weight:bold;font-stretch:normal;font-size:medium;line-height:1.25;font-family:Mailston;-inkscape-font-specification:'Mailston Bold';text-align:start;letter-spacing:-1.31677246px;text-anchor:start;display:inline;fill:#960200;fill-opacity:1;stroke:#990002;stroke-width:0.39399999;stroke-linecap:round;stroke-linejoin:round;stroke-miterlimit:4;stroke-dasharray:none;stroke-dashoffset:0;stroke-opacity:1"
       d="m 84.441916,248.43825 c -5.898087,2.98414 -11.675385,8.33949 -14.615656,16.11809 -0.392083,3.46878 3.373676,4.79994 3.373676,4.79994 5.02543,-14.91343 23.957556,-22.39123 26.759266,-19.14689 2.622158,3.03643 -3.30761,14.23098 -12.52966,19.47163 0.828262,-4.49611 2.175487,-9.03865 3.7955,-13.78659 -2.727254,-0.18218 -5.446777,0.0965 -8.123742,2.97871 -1.712659,8.47531 -2.837947,18.07064 0.03443,26.5734 2.070515,3.32145 6.114038,2.27043 4.093847,1.07945 -0.683521,-3.71823 -0.828102,-7.33982 -0.567388,-10.94706 5.20583,2.95153 12.744923,7.23569 16.590891,5.47565 5.43983,-2.48941 2.8628,-8.26514 2.8628,-8.26514 0,0 -0.047,3.90006 -2.6166,5.26343 -2.80969,1.4908 -9.496083,-3.06525 -14.023837,-6.60616 8.553749,-6.41174 15.971357,-16.84046 12.548137,-22.8644 -2.214008,-3.89606 -9.998249,-3.98049 -17.581667,-0.14406 z M 184.90295,201.22584 c -0.25418,0.12821 -0.47846,0.2701 -0.67307,0.42454 -0.24609,0.17421 -0.36958,0.33631 -0.37013,0.48688 -0.24903,1.51655 -0.42628,3.1978 -0.54107,4.99225 l -5.34321,2.69523 3.16034,1.49612 2.05087,-1.15746 c -0.0825,3.257 0.007,6.76665 0.23038,10.28706 0.15948,1.74822 0.38872,3.38577 0.68831,4.91302 0.13369,0.68153 0.2865,1.3131 0.45353,1.90796 -0.0406,0.29572 -0.0825,0.59344 -0.1292,0.89689 -0.0888,0.69607 -0.2135,1.34769 -0.37492,1.95516 -0.14803,0.57568 -0.33892,1.0856 -0.57269,1.52917 -0.21384,0.43352 -0.47351,0.71446 -0.77913,0.84356 -0.29904,0.15084 -0.55095,0.0405 -0.75521,-0.33247 -0.18428,-0.383 -0.33827,-0.93192 -0.46171,-1.64622 -0.10351,-0.72434 -0.18333,-1.56096 -0.23958,-2.50953 -0.0628,-0.97034 -0.1121,-1.97229 -0.14816,-3.00621 -0.0161,-1.044 -0.0323,-2.08776 -0.0484,-3.13175 -0.0161,-1.04397 -0.0489,-1.99186 -0.0988,-2.8434 -0.006,-0.24762 -0.13109,-0.47258 -0.37587,-0.67477 -0.22477,-0.21226 -0.50952,-0.39419 -0.8539,-0.54614 -0.34437,-0.15194 -0.72205,-0.26247 -1.13306,-0.33071 -0.39109,-0.0782 -0.75882,-0.11796 -1.10375,-0.11935 -0.35149,-0.0232 -0.65386,0.004 -0.90621,0.0812 -0.2324,0.0672 -0.35872,0.18102 -0.37921,0.34167 -0.10051,0.27614 -0.28454,0.76978 -0.55246,1.48108 -0.26789,0.71128 -0.5665,1.58827 -0.89532,2.63088 -0.33537,1.02089 -0.67463,2.18151 -1.01765,3.48179 -0.34957,1.27854 -0.66936,2.6172 -0.95967,4.01615 -0.0678,0.38486 -0.13533,0.7696 -0.20305,1.15446 -0.0677,0.38487 -0.13576,0.76983 -0.2035,1.15469 -0.12289,-0.86486 -0.18581,-1.75959 -0.18909,-2.68481 -0.01,-0.94695 0.003,-1.85565 0.0398,-2.72568 0.0497,-0.90183 0.10223,-1.75505 0.15825,-2.55987 0.056,-0.80478 0.10204,-1.52932 0.13757,-2.17348 -0.0127,-0.19405 -0.15182,-0.31168 -0.41672,-0.35342 -0.24526,-0.0517 -0.55035,-0.0354 -0.91551,0.0485 -0.35174,0.0523 -0.7468,0.15111 -1.18515,0.29708 -0.41837,0.13591 -0.80694,0.29459 -1.16578,0.4756 -0.35887,0.18101 -0.65482,0.38049 -0.88778,0.59818 -0.23955,0.19595 -0.3596,0.36914 -0.36012,0.51971 -0.018,1.31171 5.3e-4,2.62964 0.0554,3.95467 0.0549,1.32502 0.1628,2.63581 0.3239,3.9323 0.16114,1.29649 0.39519,2.56872 0.70243,3.81656 0.0386,0.1577 0.0835,0.31224 0.12547,0.46827 -0.0369,0.26808 -0.077,0.53715 -0.12117,0.80717 -0.1497,1.02741 -0.36205,1.96125 -0.63708,2.80138 -0.28156,0.81837 -0.64497,1.32724 -1.09014,1.52675 -0.36539,0.15926 -0.66982,-0.0127 -0.91344,-0.5161 -0.22361,-0.51347 -0.40345,-1.22437 -0.53945,-2.13274 -0.13601,-0.90834 -0.22156,-1.95444 -0.25705,-3.13896 -0.0421,-1.20624 -0.0609,-2.41199 -0.0566,-3.61661 0.004,-1.20461 0.035,-2.36009 0.0921,-3.46605 0.0571,-1.10594 0.12357,-2.02864 0.19921,-2.76818 -0.0126,-0.1941 -0.1418,-0.31673 -0.38693,-0.36845 -0.25181,-0.0733 -0.55328,-0.0841 -0.90504,-0.0324 -0.3583,0.0304 -0.74673,0.11378 -1.16512,0.24966 -0.42494,0.11419 -0.82019,0.2511 -1.1856,0.41036 -0.36541,0.15929 -0.67789,0.34199 -0.93731,0.54803 -0.24611,0.17421 -0.36916,0.33607 -0.36969,0.48664 -0.0137,0.10707 -0.031,0.31655 -0.052,0.62777 -0.001,0.30117 -0.005,0.51631 -0.0122,0.64513 -0.928,-0.1832 -1.7603,-0.20211 -2.49714,-0.0556 -0.74337,0.12447 -1.37406,0.31776 -1.8924,0.57922 -0.51833,0.26145 -0.93058,0.53188 -1.23676,0.8115 -0.30615,0.27968 -0.49287,0.46138 -0.55951,0.5451 -0.52626,0.61616 -0.95324,1.40797 -1.28178,2.3753 -0.3351,0.94557 -0.5847,1.98572 -0.74801,3.12021 -0.14339,1.12442 -0.19376,2.28985 -0.15173,3.49608 0.0355,1.18451 0.16058,2.32385 0.3755,3.41786 0.10929,0.62762 0.25241,1.22368 0.42211,1.79557 -0.0314,0.22241 -0.0617,0.44335 -0.0967,0.67007 -0.0888,0.69607 -0.2135,1.34767 -0.3749,1.95514 -0.14803,0.57567 -0.33895,1.08562 -0.57271,1.52919 -0.21383,0.43352 -0.47399,0.71469 -0.77957,0.84378 -0.29906,0.15084 -0.55049,0.0402 -0.75476,-0.3327 -0.18453,-0.38288 -0.33829,-0.93191 -0.46171,-1.64621 -0.10352,-0.72435 -0.18334,-1.56097 -0.23957,-2.50955 -0.0628,-0.97032 -0.11213,-1.97228 -0.14818,-3.00621 -0.0161,-1.04398 -0.0323,-2.08774 -0.0484,-3.13173 -0.0161,-1.04397 -0.0488,-1.99186 -0.0989,-2.84341 -0.006,-0.24762 -0.13108,-0.47259 -0.37587,-0.67476 -0.22475,-0.21228 -0.5095,-0.3942 -0.8539,-0.54614 -0.34438,-0.15195 -0.72204,-0.26247 -1.13307,-0.3307 -0.39107,-0.0783 -0.75925,-0.11776 -1.10421,-0.11916 -0.35147,-0.0232 -0.65336,0.004 -0.90572,0.0809 -0.23242,0.0671 -0.3588,0.18107 -0.3792,0.34166 -0.10052,0.27614 -0.28457,0.76979 -0.55249,1.4811 -0.26791,0.71129 -0.56648,1.58827 -0.89532,2.63089 -0.33537,1.02087 -0.67463,2.18149 -1.01763,3.48177 -0.34959,1.27854 -0.66938,2.61721 -0.95969,4.01615 -0.0678,0.38487 -0.13531,0.7696 -0.20304,1.15448 -0.0678,0.38485 -0.13578,0.76981 -0.20349,1.15467 -0.1229,-0.86487 -0.18581,-1.75961 -0.1891,-2.6848 -0.01,-0.94696 0.004,-1.85569 0.0398,-2.72568 0.0497,-0.90184 0.10234,-1.75507 0.15825,-2.55987 0.056,-0.80479 0.10206,-1.52932 0.13757,-2.17349 -0.0126,-0.19404 -0.15181,-0.31167 -0.41669,-0.35341 -0.24525,-0.0517 -0.55037,-0.0354 -0.9155,0.0485 -0.35177,0.0522 -0.74683,0.15109 -1.18514,0.29704 -0.4184,0.13593 -0.80697,0.29459 -1.16581,0.47562 -0.35886,0.18099 -0.65491,0.38051 -0.88777,0.59818 -0.23957,0.19596 -0.35968,0.36918 -0.36013,0.5197 -0.018,1.31173 5.3e-4,2.62966 0.0554,3.95468 0.0549,1.32502 0.16277,2.63581 0.32388,3.93231 0.16112,1.29648 0.39519,2.56872 0.70242,3.81657 0.0449,0.18306 0.0965,0.3628 0.1459,0.54362 -0.0335,0.2376 -0.0691,0.47582 -0.1081,0.71494 -0.14968,1.02739 -0.36206,1.96124 -0.63709,2.80137 -0.28155,0.81839 -0.64497,1.32725 -1.09013,1.52675 -0.3654,0.15927 -0.66317,0.009 -0.89367,-0.45089 -0.23711,-0.48159 -0.43031,-1.16068 -0.57968,-2.03725 -0.47762,-3.33141 -0.37311,-5.99052 -0.0332,-8.07903 -0.0126,-0.19404 -0.14136,-0.31696 -0.38644,-0.36868 -0.25182,-0.0733 -0.55377,-0.0839 -0.90552,-0.0314 -0.35831,0.0304 -0.74976,0.10246 -1.17469,0.2166 -0.42495,0.11418 -0.81674,0.26219 -1.17558,0.4432 -0.36541,0.15927 -0.68139,0.33085 -0.94734,0.51519 -0.24611,0.17422 -0.36611,0.34737 -0.36012,0.51969 -0.0445,1.13419 0.0665,4.54351 0.7862,7.82743 -0.12698,0.59285 -0.27726,1.17795 -0.45373,1.7542 -0.33564,1.09617 -0.78024,2.09697 -1.33409,3.00258 -0.56042,0.8839 -1.27601,1.52025 -2.14636,1.90917 -0.56479,0.25985 -1.06538,0.23696 -1.50208,-0.0684 -0.41671,-0.31584 -0.76988,-0.80166 -1.05939,-1.45722 -0.28955,-0.65555 -0.51564,-1.44348 -0.67812,-2.36352 -0.16249,-0.92005 -0.26856,-1.88112 -0.318,-2.88324 -0.0294,-1.01219 -0.006,-2.00071 0.0705,-2.96615 0.0897,-0.9972 0.22922,-1.86917 0.41766,-2.61553 0.20183,-0.77815 0.45264,-1.39299 0.75276,-1.84498 0.29361,-0.47375 0.64246,-0.68764 1.04693,-0.64116 0.33155,0.0332 0.57629,0.3105 0.73362,0.83235 0.15071,0.50015 0.10826,1.16041 -0.12693,1.98043 -0.0672,0.23429 -0.0411,0.43407 0.0777,0.59959 0.11879,0.16553 0.27429,0.30004 0.46629,0.4036 0.18543,0.0818 0.37766,0.11034 0.57675,0.085 0.19252,-0.047 0.3287,-0.16586 0.40901,-0.35668 0.49513,-1.17662 0.72155,-2.25522 0.67867,-3.2356 -0.0246,-0.53871 -0.21893,-0.992 -0.58245,-1.35975 -0.3501,-0.39955 -0.79029,-0.67867 -1.32037,-0.83715 -0.51673,-0.19025 -1.09684,-0.24827 -1.74053,-0.17409 -0.63033,0.0424 -1.24431,0.21443 -1.84238,0.5161 -1.01022,0.53462 -1.84241,1.35522 -2.49651,2.46172 -0.64068,1.07467 -1.1263,2.28402 -1.45618,3.62779 -0.30998,1.33372 -0.46433,2.72661 -0.46296,4.17884 0.0147,1.42044 0.18287,2.73874 0.50351,3.95477 0.059,0.24038 0.12505,0.47183 0.19577,0.69859 -0.14647,0.39717 -0.32598,0.76137 -0.53969,1.09055 -0.56697,0.86215 -1.19576,1.47978 -1.88698,1.85349 l -0.1796,0.0905 c -0.0664,0.008 -0.1193,0.0228 -0.15915,0.043 0.14338,-1.12444 0.19056,-2.26316 0.14175,-3.41587 -0.0355,-1.18451 -0.17407,-2.29196 -0.41575,-3.32235 -0.22833,-1.06219 -0.54653,-2.00378 -0.9548,-2.8249 -0.41495,-0.8428 -0.9203,-1.48987 -1.51566,-1.94106 -0.36377,-0.29246 -0.84755,-0.44924 -1.45112,-0.47044 -0.60354,-0.0212 -1.24031,0.0748 -1.91104,0.28786 -0.6773,0.19134 -1.34818,0.47957 -2.01291,0.86497 -0.64478,0.37533 -1.19063,0.81345 -1.63688,1.3141 -0.48011,0.69308 -0.89081,1.50117 -1.23247,2.42502 -0.32171,0.91379 -0.55741,1.88448 -0.70709,2.91189 -0.14966,1.02741 -0.20977,2.08512 -0.18057,3.17261 0.0227,1.06572 0.14123,2.10801 0.35641,3.12672 0.21524,1.01869 0.53665,1.97091 0.96458,2.85726 0.42139,0.86461 0.95629,1.60937 1.60408,2.23453 0.50223,0.5232 1.12138,0.82465 1.85738,0.9043 0.72945,0.0579 1.45945,-0.0343 2.19,-0.2776 0.75047,-0.25331 1.44164,-0.62706 2.07359,-1.1212 0.6519,-0.50419 1.14833,-1.06789 1.48889,-1.69058 0.24033,-0.42182 0.43105,-0.89376 0.57225,-1.41588 0.14119,-0.52212 0.26889,-1.01244 0.38331,-1.47096 l 0.63745,-0.17119 c 0.22587,-0.0889 0.4452,-0.19952 0.65795,-0.33187 0.97033,-0.5145 1.83569,-1.37691 2.59631,-2.58723 0.0383,-0.06 0.0725,-0.12467 0.10942,-0.18634 0.10072,0.1712 0.20528,0.33861 0.31627,0.49791 0.58718,0.88119 1.31126,1.41733 2.17289,1.60897 0.31819,0.0649 0.68614,0.10514 1.10398,0.11985 0.41129,-0.007 0.83943,-0.0352 1.28405,-0.0841 0.45796,-0.0808 0.90595,-0.19406 1.34427,-0.34002 0.44486,-0.12425 0.85658,-0.2817 1.23539,-0.47278 1.14974,-0.60499 2.06833,-1.40675 2.75519,-2.40452 0.65721,-0.93711 1.17813,-1.95912 1.56638,-3.06379 0.31546,0.57779 0.69847,0.9684 1.15029,1.16772 0.35746,0.19545 0.84504,0.24997 1.46225,0.16408 0.63716,-0.0959 1.2745,-0.26748 1.9122,-0.51399 0.63104,-0.26824 1.19908,-0.59211 1.70463,-0.9723 0.5055,-0.38025 0.82898,-0.75637 0.96964,-1.12793 0.23211,-0.51838 0.41725,-1.15985 0.56087,-1.91139 0.20767,0.30535 0.46837,0.52964 0.78453,0.66913 0.47029,0.18864 0.921,0.27459 1.35224,0.25747 0.44462,-0.049 0.81649,-0.18632 1.11581,-0.41247 0.29932,-0.22609 0.40618,-0.48073 0.32099,-0.76342 -0.0876,-1.43374 -0.0491,-2.90592 0.11555,-4.41685 0.16468,-1.51093 0.38897,-3.01436 0.67302,-4.51036 0.24334,-1.25001 0.5161,-2.44009 0.81871,-3.56969 0.30259,-1.12959 0.60854,-2.17305 0.91716,-3.13033 0.0486,1.228 0.12691,2.51637 0.23479,3.86476 0.1278,1.33835 0.30204,2.60284 0.52327,3.79385 0.23456,1.15924 0.53957,2.17049 0.91452,3.03346 0.36844,0.84122 0.82749,1.37396 1.37723,1.59766 0.35749,0.19542 0.84506,0.24994 1.46227,0.16406 0.61721,-0.0859 1.23119,-0.25789 1.84238,-0.51609 0.63112,-0.26827 1.18973,-0.58737 1.67533,-0.95752 0.50552,-0.38024 0.82852,-0.75612 0.96918,-1.12768 0.26737,-0.56073 0.48527,-1.28439 0.65431,-2.17128 0.0118,-0.0617 0.022,-0.12499 0.0334,-0.18705 0.12704,0.16549 0.25945,0.31865 0.39741,0.45817 0.337,0.35606 0.80733,0.54472 1.41088,0.56592 0.60354,0.0212 1.21393,-0.0865 1.83168,-0.32303 0.61776,-0.23648 1.1864,-0.59854 1.70556,-1.08587 0.5391,-0.49738 0.9061,-1.07048 1.10082,-1.71981 0.16797,-0.58572 0.31607,-1.23686 0.44471,-1.95304 0.14201,-0.74799 0.2579,-1.54507 0.34722,-2.39173 0.22912,0.83633 0.49844,1.53945 0.80815,2.10968 0.32962,0.56019 0.71954,0.93992 1.16988,1.13862 0.3575,0.19543 0.8549,0.24499 1.49205,0.14904 0.63714,-0.0959 1.2642,-0.26229 1.88196,-0.49876 0.63104,-0.26823 1.19955,-0.59233 1.70509,-0.97253 0.50552,-0.38026 0.82853,-0.75613 0.96918,-1.12768 0.23725,-0.52988 0.42609,-1.18788 0.57091,-1.96135 0.21115,0.32292 0.48015,0.55758 0.80795,0.70221 0.47029,0.18863 0.921,0.27458 1.35223,0.25746 0.44463,-0.049 0.8165,-0.18633 1.11582,-0.41246 0.29929,-0.22609 0.40618,-0.48074 0.321,-0.76343 -0.0876,-1.43376 -0.0491,-2.90592 0.11555,-4.41685 0.16468,-1.51093 0.38897,-3.01436 0.67302,-4.51035 0.24333,-1.25001 0.51656,-2.44032 0.81917,-3.56993 0.30257,-1.12959 0.60807,-2.17282 0.91669,-3.1301 0.0486,1.228 0.12691,2.51637 0.23477,3.86477 0.12783,1.33835 0.30206,2.60283 0.52327,3.79385 0.23459,1.15923 0.5396,2.17049 0.91455,3.03345 0.36844,0.84122 0.82748,1.37395 1.37722,1.59766 0.35749,0.19542 0.84507,0.24994 1.46227,0.16407 0.61722,-0.0859 1.23118,-0.25789 1.84239,-0.51609 0.63113,-0.26827 1.18973,-0.58738 1.67533,-0.95752 0.50549,-0.38024 0.82852,-0.75613 0.96918,-1.12769 0.26737,-0.56072 0.48526,-1.2844 0.65431,-2.17126 0.009,-0.05 0.0178,-0.10112 0.0272,-0.15124 0.30686,0.42682 0.6489,0.72869 1.02871,0.89625 0.35749,0.19544 0.85489,0.24501 1.49204,0.14903 0.65709,-0.10599 1.30428,-0.28251 1.94196,-0.52901 0.65106,-0.27833 1.22935,-0.60737 1.7349,-0.98757 0.52542,-0.39029 0.85875,-0.77138 0.99941,-1.14294 0.26082,-0.58245 0.45904,-1.29621 0.59475,-2.14122 0.0395,-0.21718 0.0768,-0.43723 0.11163,-0.66012 0.16014,0.14997 0.35481,0.29024 0.59355,0.41751 0.41049,0.21879 0.88442,0.38055 1.42135,0.48547 0.5369,0.10493 1.1069,0.13014 1.71075,0.0758 0.60381,-0.054 1.17798,-0.206 1.72279,-0.45577 1.30897,-0.6102 2.39342,-1.43257 3.25286,-2.46729 0.87939,-1.04478 1.57995,-2.18695 2.10187,-3.42718 0.53525,-1.272 0.93159,-2.58684 1.1886,-3.94394 0.27037,-1.3889 0.44788,-2.7433 0.53227,-4.06343 0.0137,-0.10707 -0.0694,-0.19063 -0.24825,-0.25071 -0.15893,-0.0702 -0.3512,-0.0986 -0.57678,-0.0851 -0.23213,-0.008 -0.43757,0.033 -0.61699,0.12355 -0.186,0.0687 -0.2796,0.17837 -0.2801,0.32897 -0.05,0.97713 -0.18338,2.05896 -0.39995,3.24537 -0.21658,1.18641 -0.54554,2.34183 -0.98742,3.46653 -0.42848,1.09289 -0.97639,2.09564 -1.64304,3.00806 -0.67319,0.89067 -1.4946,1.55589 -2.46466,1.9951 -0.44514,0.19949 -0.84007,0.22309 -1.18445,0.0711 -0.34437,-0.15194 -0.6384,-0.44178 -0.88229,-0.86986 -0.24385,-0.4281 -0.43763,-0.95695 -0.5813,-1.5859 -0.14366,-0.62892 -0.24711,-1.31536 -0.31074,-2.05981 0.57845,-0.3669 1.15382,-0.81994 1.72626,-1.35919 0.5724,-0.53924 1.09492,-1.12894 1.56821,-1.76848 0.48666,-0.67133 0.91057,-1.36066 1.27133,-2.06868 0.37417,-0.73985 0.65572,-1.48339 0.84416,-2.22974 0.25593,-1.05595 0.22253,-1.96557 -0.0997,-2.72987 -0.32228,-0.7643 -0.78754,-1.35634 -1.39631,-1.77571 -0.5888,-0.42945 -1.24109,-0.6891 -1.95717,-0.7788 -0.70269,-0.1215 -1.3232,-0.0462 -1.8615,0.22499 -1.03667,0.52292 -1.89511,1.25639 -2.57512,2.2006 -0.68661,0.92252 -1.21131,1.96372 -1.57374,3.12349 -0.36241,1.15975 -0.58223,2.37272 -0.65981,3.63932 -0.0776,1.26659 -0.0323,2.48413 0.1359,3.65179 0.14831,1.17769 0.39314,2.25605 0.73447,3.23618 0.004,0.008 0.006,0.0164 0.009,0.0244 -0.0226,0.2139 -0.0446,0.425 -0.0698,0.64487 -0.0888,0.69607 -0.21009,1.35878 -0.36491,1.98798 -0.14148,0.59743 -0.32596,1.12863 -0.55316,1.59395 -0.23379,0.44356 -0.51015,0.74574 -0.82914,0.90665 -0.29904,0.15084 -0.57082,0.0499 -0.81501,-0.30288 -0.23069,-0.38465 -0.44082,-0.92976 -0.63062,-1.63562 -0.16986,-0.71593 -0.32623,-1.57638 -0.46852,-2.58174 -0.12233,-1.01546 -0.22788,-2.08939 -0.31662,-3.22199 -0.0887,-1.13259 -0.16416,-2.297 -0.22614,-3.4932 -0.0899,-3.05373 0.0547,-6.5508 0.28743,-10.06564 l 14.21858,-8.02366 -0.68147,-1.46543 -13.33691,6.7274 c 0.0954,-1.23783 0.19535,-2.47129 0.29696,-3.66672 -0.0126,-0.19402 -0.14136,-0.31694 -0.38647,-0.36865 -0.24526,-0.0517 -0.54723,-0.0622 -0.90553,-0.0314 -0.3583,0.0304 -0.74676,0.11376 -1.16514,0.24966 -0.42494,0.11418 -0.81971,0.25087 -1.18514,0.41012 -0.0915,0.0395 -0.17967,0.0804 -0.2644,0.12323 z m -54.35221,36.9092 a 2.5965186,3.2162589 11.083245 0 0 -1.65642,4.19333 2.5965186,3.2162589 11.083245 0 0 3.3175,1.68438 2.5965186,3.2162589 11.083245 0 0 1.65642,-4.19333 2.5965186,3.2162589 11.083245 0 0 -3.3175,-1.68438 z m -20.80142,15.11581 c 0.37881,-0.19108 0.7273,-0.179 1.04486,0.0371 0.31763,0.21552 0.60832,0.57008 0.87185,1.06339 0.26342,0.49337 0.49308,1.10388 0.68949,1.83148 0.1898,0.70587 0.3364,1.45862 0.43965,2.25825 -0.72399,0.26505 -1.24944,0.73074 -1.57687,1.39691 -0.3075,0.65611 -0.45282,1.35543 -0.43564,2.09826 0.0307,0.71098 0.21085,1.38439 0.54015,2.0199 0.34277,0.60366 0.81513,0.9914 1.41814,1.16318 -0.17617,1.01572 -0.44429,1.87734 -0.80507,2.58537 -0.34737,0.67623 -0.71753,1.12606 -1.10968,1.34892 -0.39874,0.20114 -0.80299,0.11684 -1.21286,-0.25257 -0.39,-0.37943 -0.70568,-1.15951 -0.94686,-2.34046 -0.24141,-1.10569 -0.4026,-2.36451 -0.48372,-3.7765 -0.0876,-1.43376 -0.0891,-2.8105 -0.005,-4.13062 0.0844,-1.32013 0.2546,-2.47073 0.51022,-3.45139 0.26899,-1.01244 0.62244,-1.62947 1.06102,-1.85069 z m 88.29849,-42.84808 c 0.29904,-0.15084 0.57117,-0.16326 0.81614,-0.0363 0.26488,0.11689 0.44298,0.36544 0.53447,0.74516 0.12427,0.48841 0.0887,1.05708 -0.106,1.70641 -0.20128,0.62757 -0.48184,1.25801 -0.84235,1.89075 -0.36703,0.61099 -0.76724,1.18859 -1.2004,1.73273 -0.43312,0.54414 -0.82598,0.95525 -1.17855,1.2333 0.008,-0.42998 0.0306,-1.00477 0.0662,-1.72424 0.0557,-0.7295 0.14439,-1.46327 0.26649,-2.20119 0.14201,-0.748 0.33705,-1.43506 0.58476,-2.06101 0.26764,-0.636 0.62062,-1.06435 1.05922,-1.28559 z m -39.35179,20.76024 c 0.31605,-0.15941 0.77947,-0.14697 1.38972,0.0366 l -0.0161,0.12117 c -0.0162,0.34861 -0.0332,0.86767 -0.0507,1.55731 -0.0228,0.67317 -0.0575,1.41926 -0.10558,2.23777 -0.0329,0.81089 -0.0885,1.66149 -0.16692,2.55198 -0.0683,0.86652 -0.16368,1.6714 -0.28655,2.41417 -0.10779,0.73518 -0.24063,1.35979 -0.39773,1.87398 -0.14206,0.5066 -0.3182,0.81271 -0.52889,0.91899 -0.25586,0.12906 -0.46807,-0.0565 -0.63651,-0.55787 -0.16839,-0.50129 -0.29628,-1.15552 -0.38349,-1.96252 -0.0922,-0.82341 -0.13362,-1.73849 -0.12495,-2.74514 0.009,-1.00663 0.0593,-1.9591 0.15273,-2.85722 0.0884,-0.91451 0.23157,-1.70544 0.42927,-2.37249 0.19771,-0.66705 0.43968,-1.07274 0.72564,-1.21699 z"
       id="path1034-1-9-9" />
  </g>
  <g
     inkscape:groupmode="layer"
     id="layer3"
     inkscape:label="Layer 3"
     style="display:inline"
     transform="translate(-17.510088,-82.090813)" />
</svg>
